<?xml version="1.0" encoding="UTF-8"?>
<svg id="Layer_1" xmlns="http://www.w3.org/2000/svg" xmlns:xlink="http://www.w3.org/1999/xlink" viewBox="0 0 2750.07 1623.87">
  <defs>
    <style>
      .cls-1 {
        fill: #fff;
      }

      .cls-2 {
        filter: url(#drop-shadow-1);
        opacity: .08;
      }
    </style>
    <filter id="drop-shadow-1" filterUnits="userSpaceOnUse">
      <feOffset dx="3" dy="3"/>
      <feGaussianBlur result="blur" stdDeviation="25"/>
      <feFlood flood-color="#231f20" flood-opacity=".75"/>
      <feComposite in2="blur" operator="in"/>
      <feComposite in="SourceGraphic"/>
    </filter>
  </defs>
  <rect class="cls-1" x="-4" y="-12.79" width="2758.32" height="1653.6"/>
  <g class="cls-2">
    <path class="cls-1" d="M1897.59,637.03c-.71,3.29-1.19,5.83-1.81,8.34-.99,4.02-3.1,7.4-6.2,10.14-7.57,6.7-23.36,11.11-35.19.62-8.52-7.56-17.4-14.6-26.92-20.84-2.91-1.91-4.93-4.5-5.8-7.8-.89-3.4-1.95-6.92-1.93-10.38.04-6.31,4.29-9.37,10.5-8.08,2.31.48,4.52,1.42,6.83,1.92,1.21.26,2.54.01,4.88-.02-1.48-1.62-2.17-2.52-3-3.26-14.17-12.59-20.38-28.77-20.85-47.29-.18-7.3.52-14.66,1.34-21.94,1.54-13.65,4.02-27.14,8.46-40.2,7.22-21.23,19.44-38.84,37.79-51.93,3.64-2.6,7.54-4.93,11.57-6.85,6.84-3.26,14.08-4,21.43-1.77,3.93,1.19,7.8,1.28,11.9.76,15.01-1.87,29.17,1.27,42.62,7.99,1.9.95,3.83,1.89,5.62,3.03,10.28,6.49,21.45,6.61,32.89,4.64,3.49-.6,6.88-1.8,10.38-2.33,5.88-.9,8.56.53,10.11,6.21,1.55,5.68,5.32,8.75,10.31,10.85,2.83,1.19,5.77,2.12,8.66,3.19,5.62,2.08,9.89,5.46,11.47,11.59.81,3.14,2.82,4.71,6.54,4.15.67-3.55-.9-6.47-2.39-9.35-4.65-9.05-9.28-18.11-14.06-27.09-8.99-16.93-18.13-33.77-27.09-50.71-4.43-8.36-8.91-16.72-12.83-25.32-7.79-17.08-16.95-33.36-28-48.49-21.52-29.48-40.57-60.53-59.51-91.68-10.94-17.99-22.03-35.91-33.6-53.5-6.09-9.27-13.38-17.75-20.07-26.63-6.39-8.49-15.16-13.39-24.99-16.66-3.36-1.12-6.8-2.01-10.24-2.9-6.26-1.62-12.1-4.22-17.29-8.03-12.77-9.39-25.46-18.9-38.07-28.51-3-2.28-5.62-5.06-8.33-7.71-1-.98-2.03-2.11-2.54-3.37-.92-2.25-1.11-4.67.56-6.73,1.36-1.67,3.41-1.63,5.25-1.32,1.83.32,3.65.99,5.34,1.79,6.21,2.93,12.35,5.98,18.53,8.96,1.89.91,3.82,1.71,6.42,2.87,0-1.75.2-2.86-.04-3.88-.75-3.26-2.25-6.18-4.24-8.9-9.08-12.43-18.4-24.66-28.59-36.21-6.26-7.1-12.42-14.29-18.53-21.52-1.67-1.98-3.12-4.17-4.42-6.41-1.32-2.29-.61-3.99,1.92-5.07,1.66-.71,3.41-1.2,5.66-1.97-1.56-2.31-2.92-4.18-4.13-6.16-1.6-2.61-3.2-5.25-4.58-7.98-1.44-2.86-1.41-5.96-.74-9.03.67-3.09,4.05-4.28,6.58-2.25,1.28,1.02,2.29,2.38,3.41,3.6,1.74,1.89,3.47,3.78,5.55,6.04,2.36-2.52,4.41-4.7,6.81-7.26,3.62,1.65,6.46,4.39,9,7.41,3.65,4.35,7.1,8.87,10.68,13.28,1.16,1.43,2.45,2.75,3.71,4.16,3.15-3.03,1.27-7.19,3.4-10.5,2.93.02,5.17,1.55,7.07,3.72.62.71,1.09,1.54,1.61,2.33,17.78,27.21,38.19,52.39,59.5,76.87,25.5,29.27,51.25,58.33,76.48,87.82,24.78,28.95,49.07,58.32,73.5,87.57,3.94,4.72,7.55,9.71,11.16,14.7,26.66,36.8,53.14,73.73,79.95,110.42,22.1,30.25,42.44,61.56,59.52,94.94,8.63,16.86,16.49,34.08,23.17,51.81,5.55,14.72,12.84,28.49,22.13,41.13,7,9.53,14.43,18.76,21.82,27.99,5.03,6.28,10.41,12.28,15.46,18.55,3.04,3.78,6.68,6.54,11,8.73,10.76,5.46,21.43,11.1,32.05,16.83,7.1,3.83,13.66,8.48,19.61,13.98,15.41,14.26,24,32.1,27.07,52.61,3.19,21.3,7.05,42.47,11.45,63.54,1.5,7.16,3.32,14.31,5.71,21.22,11.66,33.59,15.44,68.18,13.59,103.5-1.03,19.67-.08,39.27,1.47,58.87,3.01,38.04,9.91,75.5,17.09,112.92,1.07,5.58,2.44,11.12,3.12,16.74.84,6.91,4.66,10.38,11.18,11.92,16.35,3.85,32.65,7.88,48.95,11.9,61.08,15.08,122.22,29.92,183.21,45.37,44.58,11.29,87.69,26.97,129.65,45.81,12.37,5.55,23.73,12.83,34.63,20.79,12.68,9.26,18.83,22.2,19.97,37.6.37,4.94.18,9.94-.08,14.9-.44,8.27-1.13,16.53-1.75,24.79-1.25,16.79-1.21,33.55,0,50.36,2.75,38.26,4.57,76.55,3.16,114.93-1.14,30.98-2.05,61.98-2.88,92.97-.28,10.64-.16,21.3.05,31.95.33,16.63,6.79,30.83,18.15,42.75,4.22,4.43,8.95,8.48,13.87,12.12,18.28,13.55,37.66,25.41,57.59,36.35,3.69,2.03,7.79,3.44,11.86,4.6,9.34,2.66,18.85,4.53,28.54,5.4,1.88.17,3.78.38,5.6.86,3.67.97,5.16,2.65,5.41,5.69.33,4.02-1.46,7.37-4.87,8.58-1.53.54-3.24.74-4.88.75-2.36,0-4.72-.32-7.08-.48-7.31-.5-14.62-1.1-21.94-1.46-9.46-.46-18.92-.72-28.38-1.06-8.08-.29-16.04-1.48-23.82-3.57-6.94-1.86-13.93-2.71-21.06-2.44-6.62.25-13.23.71-19.84,1.08-.71.04-1.41.15-2.12.17-21.76.68-43.52,1.43-65.29,1.95-3.73.09-7.58-.42-11.2-1.35-7.69-1.99-11.93-7.21-12.84-15.15-.57-5.01-.1-9.96,1.07-14.8,2.22-9.19,4.61-18.35,7.04-27.49,2.99-11.3,4.23-22.76,3.75-34.44-.32-7.86-1.8-15.48-3.83-23.05-10.81-40.2-21.67-80.39-32.36-120.62-7.51-28.29-11.37-57.09-10.46-86.38.37-11.8,1.95-23.57,2.99-35.35.62-7.07,1.27-14.13,1.88-21.2.06-.7.04-1.42,0-2.13-.4-7.59-4-11.83-11.45-13.11-2.78-.48-5.66-.7-8.48-.62-24.65.71-49.19-.84-73.71-3.24-28.51-2.79-56.81-7.08-85.12-11.33-22.93-3.44-45.87-6.78-68.76-10.45-31.76-5.09-63.53-10.17-95.02-16.81-13.92-2.93-27.31-7.68-40.75-12.23-18.37-6.21-36.69-12.6-55.2-18.35-14.29-4.44-29.02-6.76-44.08-6.4-6.66.16-13.21,1.06-19.6,2.94-5.98,1.76-11.52,4.48-16,8.87-16.9,16.53-36.49,29.35-56.85,41.03-25.48,14.63-50.14,30.49-73.87,47.81-11.28,8.24-22.6,16.41-33.86,24.67-13.36,9.79-26.63,19.72-40.04,29.45-31.13,22.6-64.11,41.97-99.56,57.08-6.49,2.77-12.7,6.37-18.66,10.18-6.37,4.06-12.5,8.58-18.4,13.31-35.18,28.21-72.73,52.89-112.15,74.68-24.43,13.51-49.33,26.16-73.91,39.39-18.54,9.98-36.93,20.25-55.33,30.48-2.67,1.48-5.22,3.29-7.5,5.32-4.99,4.44-7.68,10.12-8.05,16.83-.13,2.36.02,4.74-.18,7.1-.76,8.91-5.73,14.86-14.41,17.24-2.04.56-4.17.8-6.28,1.06-11.29,1.38-20.06,6.76-25.97,16.52-1.95,3.23-3.51,6.7-5.26,10.05-2.3,4.4-4.29,9-7,13.13-2.84,4.33-5.96,8.62-9.67,12.19-9.66,9.3-9.15,8.77-22.3,7.49-2.2-2.44-4.56-5.07-7.25-8.05-1.88.09-4.02-.07-6.05.35-4.46.94-7.9-.66-10.83-3.79-5.01-5.36-10.04-10.7-14.91-16.19-2.56-2.88-2.35-5.81.45-8.81,4.84-5.19,9.8-10.28,14.7-15.41,7.68-8.05,15.41-16.03,21.98-25.07,2.35-3.23,5.27-6.08,8.13-8.9,25.98-25.56,51.97-51.13,78.04-76.6,30.98-30.27,62.02-60.49,93.1-90.66,14.61-14.18,29.39-28.17,44.09-42.25,9.27-8.88,19.54-16.48,30.45-23.18,6.85-4.21,13.78-8.31,20.79-12.26,15.5-8.72,26.34-21.29,32.4-38.06,1.19-3.29,2.7-6.67,4.85-9.38,15.56-19.56,26.23-41.6,33.18-65.43,4.11-14.07,7.49-28.35,10.94-42.6,14.19-58.54,33.2-115.44,57.75-170.47,14.46-32.42,23.62-66.33,27.89-101.58,1.59-13.17,2.37-26.38,2.94-39.63.83-19.38,2.18-38.75,3.33-58.12.35-5.91.57-11.83,1.21-17.71,2.32-21.27,9.5-40.96,20.18-59.37,8.43-14.53,17.32-28.8,25.79-43.31,8.23-14.1,16.24-28.33,24.24-42.56,8.99-16,9.79-32.77,4.59-50.12-2.4-7.99-7.34-13.67-14.8-17.18-2.99-1.4-6.09-2.63-9.24-3.59-3.6-1.1-6.85.57-7.57,4.29-1.05,5.46-4.48,8.6-8.95,11.21-8.6,5.02-17.69,8.02-27.75,6.76-3.26-.41-6.5-1.24-9.65-2.21-6.56-2.01-13.04-4.25-19.57-6.35-1.34-.43-2.73-.69-4.6-1.16ZM1857.06,1306.9c1.11-1.18,2.45-2.46,3.61-3.87,6.46-7.87,12.98-15.68,19.27-23.69,6.29-8,12.63-15.98,18.41-24.34,25.06-36.23,54.38-68.55,87.84-97.18,10.79-9.23,21.39-18.68,32.02-28.1,25.99-23.02,46.63-50.2,62.81-80.86,13.09-24.79,23-50.84,30.71-77.75,2.86-9.99,5.67-20.06,7.54-30.27,2.87-15.66-2.15-29.04-14.13-39.5-4.07-3.55-8.64-6.69-13.39-9.25-15.2-8.19-30.54-16.12-45.96-23.91-3.32-1.68-7.1-2.64-10.78-3.35-8.02-1.54-13.97,1.22-17.9,8.26-4.52,8.08-8.26,16.54-10.15,25.65-5.99,28.95-11.9,57.92-17.7,86.91-2.97,14.84-5.22,29.83-8.49,44.6-10.3,46.47-28.63,89.47-55.41,128.97-13.94,20.55-26.84,41.82-39.85,62.98-14.88,24.2-25.16,50.3-30.82,78.17-.24,1.16-.48,2.32-.56,3.5-.13,1.74.98,2.52,2.94,3ZM2079.82,593.15c0-1.27.05-1.52,0-1.74-6.43-26.38-12.86-52.77-19.3-79.15-.17-.68-.38-1.37-.65-2.02-.65-1.59-2.94-2.01-4.11-.74-.63.69-1.17,1.47-1.66,2.27-3.61,5.82-7.21,11.65-10.81,17.47-4.15,6.71-4.7,13.76-1.73,21.02,1.34,3.27,3.13,6.36,4.53,9.61,6.29,14.54,17.37,24.5,30.7,32.32.74.43,1.67.53,3.03.94Z"/>
    <path class="cls-1" d="M2730.83,181.77c-1.97,1.8-3.08,2.94-4.32,3.93-35.04,28.09-65.83,60.48-95.17,94.32-14.81,17.09-24.4,37.04-31.01,58.52-3.7,12-6.26,24.26-8.59,36.58-4.22,22.28-11.84,43.3-23.71,62.68-4.96,8.1-10.76,15.56-17.57,22.21-16.9,16.49-37.04,24.98-60.76,24.65-8.28-.12-16.53,0-24.79,1.02-23.82,2.91-45.21,11.67-64.33,26.07-3.59,2.7-6.95,5.69-10.44,8.53-1.03.84-2.13,1.59-2.98,2.22-1.63-.72-1.4-1.79-1.45-2.66-1.31-21.04-1.76-42.09.31-63.11,1.25-12.74,3.41-25.33,8.12-37.32,1.64-4.17,3.49-8.3,5.68-12.2,10.27-18.31,26.2-27.94,46.86-30.4,6.79-.81,13.64-1.71,20.25-3.43,14.02-3.65,26.04-11.05,36.47-21.08,9.28-8.93,16.8-19.24,23.17-30.38,3.4-5.95,6.4-12.13,9.56-18.22.98-1.89,1.95-3.79,2.78-5.75,9.32-21.88,24.44-39.19,42.54-54.18,20.22-16.74,42.79-29.52,66.96-39.56,25.66-10.66,52.28-18.01,79.65-22.68.44-.07.91.06,2.78.2Z"/>
    <path class="cls-1" d="M2416.54,120.12c-.54,8.82-1.42,24.4-2.49,39.98-.41,5.97-2.4,11.6-5.15,16.86-2.96,5.65-6.03,11.27-9.48,16.63-12.19,18.96-21.73,39.3-31.28,59.64-1.81,3.84-3.2,7.88-4.73,11.86-5.44,14.14-6.04,28.62-2.56,43.25,1.53,6.42,3.46,12.78,5.65,19.01,2.92,8.31,5.1,16.69,5.32,25.57.29,11.66-2.52,22.49-8.14,32.64-4.04,7.3-9.17,13.77-14.99,19.72-8.3,8.51-17.64,15.75-27.47,22.38-15.32,10.34-31.58,19.08-47.79,27.89-.41.23-.82.47-1.26.65-1.1.46-2.2.84-3.33-.01-1.2-.9-.93-2.07-.58-3.19.42-1.35,1.01-2.65,1.49-3.98,4.11-11.54,5.48-23.39,4.48-35.61-1.23-15.22-5.18-29.81-10.05-44.15-1.58-4.64-4.09-9.05-6.68-13.24-5.89-9.52-10.68-19.49-13.53-30.34-5.09-19.41-3.57-38.46,3.31-57.17,7.06-19.2,18.56-35.57,32.6-50.25,7.2-7.54,14.96-14.42,23.51-20.47,19.26-13.63,34.11-31.24,45.64-51.74,10.03-17.84,17.07-36.87,22.74-56.47,5.72-19.78,9.93-39.91,14.19-60.04,2.74-12.95,5.61-25.88,8.47-38.81.63-2.83,1.9-4.33,3.18-4.01,2.01.5,2.05,2.34,2.49,3.9,4.7,16.63,8.21,33.53,10.86,50.6,3.71,23.89,5.31,47.95,5.58,78.91Z"/>
    <path class="cls-1" d="M2992.85,636.77c-1.37,1.75-1.72,2.37-2.22,2.83-15.65,14.09-31.25,28.24-47.01,42.21-10.81,9.58-22.16,18.5-34.04,26.72-9.16,6.33-18.67,12.07-28.63,17.06-25.57,12.8-52.54,18.53-81.1,15.77-15.65-1.51-31.2-.18-46.77.93-3.07.22-6.11.68-9.18.93-21.14,1.7-39.26,9.99-54.17,25.06-4.82,4.87-9.22,10.16-13.85,15.22-3.35,3.67-6.62,7.42-10.17,10.89-9.45,9.24-20.78,13.62-34.07,13.11-8.11-.31-15.95-1.84-23.7-4.09-11.16-3.25-21.85-7.7-32.36-12.61-16.51-7.73-32.44-16.55-48.12-25.83-1.2-.71-2.33-1.55-3.64-2.43,1.43-2.6,4.04-2.63,6.09-3.42,17.42-6.72,33.05-16.3,46.83-28.9,11.25-10.28,20.71-22.07,29.01-34.81,1.94-2.97,3.82-5.99,5.6-9.05,12.13-20.93,30.42-33.2,53.81-38.27,13.77-2.99,27.65-3.34,41.64-1.88,20.63,2.15,40.35,7.57,59.5,15.5,24.74,10.24,50.48,13.73,77.15,11.16,17.27-1.66,34.07-5.57,50.77-9.9,29.98-7.76,59.87-15.9,89.8-23.87,2.48-.66,4.97-1.3,8.84-2.31Z"/>
    <path class="cls-1" d="M2990.09,1021.81c-3.69-1.16-5.89-1.81-8.06-2.55-17.67-6.07-35.26-12.34-53-18.18-18.66-6.14-37.66-11.01-57.04-14.41-18.73-3.28-37.59-4.58-56.55-3.23-18.28,1.3-35.97,5.35-52.89,12.62-22.24,9.57-45.48,14.44-69.73,13.95-14.54-.29-28.69-2.8-42.23-8.32-18.85-7.68-33.51-20.18-43.52-37.97-6.41-11.39-13.85-22.02-22.83-31.54-15.6-16.54-34.4-27.98-55.88-35.17-2.22-.74-4.44-1.47-7.15-2.37.98-.96,1.53-1.74,2.27-2.18,14.06-8.28,28.05-16.7,42.27-24.71,11.98-6.75,24.58-12.12,38.01-15.45,12.09-3,24.3-3.83,36.63-2.42,9.37,1.07,17.86,4.75,25.19,10.62,4.59,3.68,8.76,7.93,12.85,12.18,3.93,4.09,7.52,8.51,11.22,12.82,14.75,17.2,33.42,26.8,55.99,28.55,20.06,1.55,40.13,2.16,60.23.18,16.49-1.63,32.55,1.04,48.27,5.97,15.44,4.84,29.87,11.85,43.7,20.18,21.8,13.13,41.56,28.92,59.76,46.61,9.32,9.06,18.07,18.72,27.03,28.15,1.6,1.69,2.97,3.6,5.47,6.66Z"/>
    <path class="cls-1" d="M1276.23,633.03c2.88.62,5.11,1.11,7.33,1.79,20.12,6.14,40.25,12.28,60.4,18.33,19.26,5.78,38.66,10.98,58.54,14.2,24.25,3.92,48.46,4.69,72.63-.65,10.66-2.36,20.98-5.75,30.88-10.34,12.09-5.61,24.68-9.55,37.82-11.73,21.83-3.64,43.37-2.72,64.44,4.44,22.41,7.62,39.72,21.43,51.34,42.27,8.48,15.21,19.21,28.67,32.5,40,13.33,11.37,28.49,19.38,45.18,24.58,2.19.68,4.38,1.37,7.15,2.24-1.1,1.02-1.67,1.75-2.41,2.21-20.65,12.96-41.68,25.23-64.23,34.66-10.71,4.48-21.69,8.09-33.23,9.88-17.17,2.67-32.44-1.15-45.29-13.15-3.97-3.71-7.68-7.7-11.43-11.64-4.73-4.97-9.27-10.12-14.09-15-16.17-16.35-35.84-25.2-58.76-26.45-10.14-.55-20.33-.44-30.49-.42-12.06.03-24.13.5-36.19.36-11.12-.13-22.17-1.29-33.08-3.71-16.46-3.64-31.23-10.75-44.5-21.08-17.18-13.36-34.39-26.68-51.56-40.05-13.64-10.62-26.88-21.7-38.54-34.53-1.53-1.68-3.42-3.16-4.41-6.23Z"/>
    <path class="cls-1" d="M1271.89,1016.71c1.08-1.44,1.42-2.07,1.92-2.52,17.79-15.95,35.47-32.02,53.44-47.76,11.75-10.29,24.33-19.57,37.57-27.9,15.49-9.74,31.79-17.73,49.53-22.54,16.84-4.56,33.92-6.19,51.3-4.22,2.35.27,4.72.38,7.08.47,19.93.73,39.69-1.27,59.42-3.69,13.07-1.6,24.39-7.19,34.44-15.53,6.04-5.01,11.26-10.77,15.98-17.04,2.84-3.77,5.81-7.49,9.1-10.86,13.16-13.48,29.29-19.45,48.05-18.66,11.23.47,21.97,3.13,32.47,6.94,10.7,3.87,21.04,8.6,30.84,14.34,12.85,7.53,25.46,15.48,38.15,23.27.78.48,1.44,1.15,2.09,1.67-.31,2.1-1.93,2.01-3.18,2.3-9.01,2.09-17.75,5-26.13,8.93-21.48,10.07-38.13,25.15-48.73,46.65-5.37,10.88-12.25,20.76-20.88,29.37-15.35,15.33-34.03,23.48-55.39,26.07-20.76,2.52-41.05-.43-61.19-5.07-16.85-3.88-33.28-9.17-49.43-15.28-7.63-2.89-15.45-4.35-23.46-5.16-21.83-2.21-43.45-.51-64.96,3.49-25.88,4.82-50.87,12.8-75.78,21.06-11.44,3.79-22.87,7.64-34.31,11.43-1.57.52-3.16,1.03-4.79,1.25-.77.1-1.63-.49-3.18-1.01Z"/>
    <path class="cls-1" d="M1864.96,400.4c-5.9,3.26-11.61,6.04-16.92,9.45-5.16,3.32-10.1,7.04-14.76,11.03-4.84,4.14-9.47,8.59-13.73,13.33-4.25,4.74-8.18,9.83-11.76,15.09-3.45,5.07-6.5,10.44-9.31,15.9-2.91,5.64-5.32,11.54-8.01,17.45-9.88,1.09-19.5.33-29.02-1.5-21.25-4.08-38.69-14.74-52.73-31.1-9.97-11.61-17.25-24.82-22.93-38.96-7.01-17.43-11.21-35.6-13.79-54.16-2.23-16.08-7.33-31.25-14.34-45.83-7-14.58-15.99-27.88-26.16-40.41-10.75-13.25-22.59-25.5-34.97-37.21-14.27-13.49-28.69-26.82-43-40.26-3.97-3.72-7.83-7.56-11.67-11.41-.93-.93-1.61-2.12-2.5-3.32,2.62-1.05,4.6-.11,6.63.37,18.46,4.4,36.28,10.7,53.6,18.37,14.26,6.32,28.33,13.08,42.45,19.74,10.91,5.14,21.66,10.62,32.64,15.6,12.83,5.83,23.35,14.42,31.4,25.84,4.89,6.94,9.29,14.27,13.42,21.69,4.6,8.26,8.65,16.82,12.93,25.25,4.83,9.51,10.33,18.6,16.55,27.26,5.13,7.13,10.82,13.75,17.33,19.66,12.02,10.91,26.15,17.74,41.79,21.59,6.65,1.64,13.44,2.77,20.06,4.52,6.15,1.63,12.33,3.37,18.2,5.79,7.8,3.22,13.93,8.68,18.63,16.2Z"/>
    <path class="cls-1" d="M2263.61,1281.66c17.74,5.89,34.74,11.64,51.81,17.17,17.12,5.55,34.98,7.96,52.77,11.63.12,4-1.63,7.09-2.84,10.34-2.23,5.97-4.77,11.87-6.46,18-5.04,18.33-3.81,36.54,1.91,54.54,4.11,12.93,10.11,24.99,17.3,36.45,4.4,7.01,9.23,13.75,13.74,20.7,4.37,6.75,8.83,13.46,12.8,20.44,6.42,11.3,9.65,23.45,9.83,36.58.3,22.5.12,44.97-1.97,67.38-2.73,29.25-7.58,58.15-15.2,86.56-.31,1.14-.5,2.34-.98,3.4-.87,1.9-2.4,1.99-4.58.96-1.81-4.57-2.03-9.82-2.91-14.88-4.57-26.34-9.62-52.58-17.15-78.27-6.81-23.23-15.76-45.56-27.56-66.75-9.95-17.86-23.03-32.87-39.18-45.32-13.75-10.59-26.07-22.66-36.78-36.34-10.88-13.89-19.72-28.92-25-45.86-8.03-25.81-5.61-50.39,8.57-73.69,3.68-6.04,6.57-12.56,9.82-18.86.64-1.24,1.23-2.51,2.05-4.18Z"/>
    <path class="cls-1" d="M1536.97,1471.33c2.31-2.5,3.64-4.11,5.15-5.54,10.99-10.41,22.04-20.76,33.04-31.17,11.34-10.73,22.79-21.36,33.91-32.31,11.48-11.3,22.03-23.44,31.4-36.58,11.63-16.31,20.68-33.86,26.01-53.26,2.52-9.17,3.53-18.56,4.86-27.92,3.08-21.51,9.56-41.91,20.11-60.95,6.23-11.25,13.83-21.47,23.23-30.28,17.91-16.78,39.1-25.2,63.68-25.19,8.95,0,17.9-.34,27.34-.54.04.58.36,1.5.13,2.25-8.09,26.96-13.93,54.5-21.03,81.72-3.53,13.53-8.45,26.58-14.98,38.99-2,3.81-4.49,7.11-7.61,10.13-12.9,12.46-23,26.96-30.28,43.35-1.61,3.63-3.81,6.28-7.33,8.2-5.6,3.06-11.03,6.44-16.46,9.79-13.32,8.23-25.81,17.57-37.11,28.43-16.71,16.07-33.48,32.08-50.04,48.3-4.32,4.23-8.99,7.41-14.66,9.55-17.69,6.69-35.28,13.65-52.89,20.56-4.9,1.92-9.87,3.17-16.49,2.46Z"/>
    <path class="cls-1" d="M1522.11,1178c1.37-1.77,2.08-2.94,3.03-3.87,19.8-19.37,38.18-40.06,56.98-60.38,12.21-13.19,24.57-26.25,37.2-39.04,14.82-15,30.67-28.87,47.99-40.93,7.95-5.53,16.21-10.63,24.51-15.63,6.94-4.18,14.57-6.54,22.55-8.14,21.28-4.25,51.06,5.36,60.32,39.33,5.3,19.42.89,36.46-13.11,50.99-6.95,7.21-14.96,13.03-23.55,18.1-11.44,6.75-23.55,12.08-35.96,16.74-24.18,9.07-49.06,15.76-74.26,21.19-27.72,5.98-55.56,11.42-83.35,17.13-5.56,1.14-11.07,2.49-16.61,3.68-1.58.34-3.2.47-5.74.82Z"/>
    <path class="cls-1" d="M2549.78,1565.51c-1.89,1.75-3.59,3.33-5.48,5.09-.93-.7-1.73-1.15-2.33-1.79-9.86-10.54-19.52-21.27-29.57-31.63-14.33-14.79-29.04-29.21-43.4-43.97-17.83-18.34-35.02-37.25-50.53-57.64-8.18-10.75-15.78-21.88-22.12-33.84-4.9-9.23-8.95-18.78-11.1-29.08-1.37-6.56-1.61-13.17-.66-19.77,1.06-7.43,4.08-14.14,9.14-19.68,3.17-3.47,6.87-6.48,10.5-9.48,5.39-4.46,11.21-5.68,18.42-4.29,16.25,3.14,32.68,5.33,49.07,7.68,3.77.54,6.61,1.97,9.02,4.89,6.22,7.52,11.42,15.67,15.9,24.32,8.41,16.25,14.48,33.41,19.66,50.9,7.13,24.07,12.43,48.57,17.11,73.21,4.76,25.1,9.45,50.21,14.21,75.31.61,3.23,1.41,6.42,2.15,9.78Z"/>
    <path class="cls-1" d="M1283.19,817.87c1.84-.77,2.86-1.31,3.95-1.63,23.33-7.03,46.66-14.03,69.99-21.03,27.42-8.23,54.99-15.93,83.12-21.36,20.95-4.04,42.01-7.01,63.44-6.35,9.5.29,18.88,1.46,27.98,4.3,3.6,1.12,7.15,2.52,10.52,4.21,13.46,6.75,21.27,17.82,23.68,32.54,1.78,10.88,1.09,21.69-2.34,32.28-4.5,13.88-13.39,23.75-26.71,29.62-8.76,3.86-18.03,5.68-27.54,6.25-16.4.98-32.62-.57-48.74-3.51-31.28-5.7-61.54-15.12-91.52-25.47-23.03-7.95-45.94-16.24-68.92-24.32-5.33-1.87-10.75-3.51-16.91-5.51Z"/>
    <path class="cls-1" d="M1524.43,472.05c1.16.15,2.58.16,3.91.52,60.67,16.63,121.64,32.2,181.9,50.3,16.04,4.82,30.56,12.66,43.7,23.03,5.79,4.57,10.91,9.82,15.05,15.95,9.14,13.52,10.98,27.91,5.11,43.22-3.44,8.97-8.61,16.84-15.19,23.78-12.43,13.13-27.72,17.47-45.29,14.29-8.44-1.53-16.37-4.63-24.02-8.47-9.12-4.58-17.66-10.1-25.87-16.14-15.29-11.26-29.29-23.99-42.79-37.29-17.55-17.29-34.02-35.58-50.4-53.96-11.34-12.73-22.7-25.43-34.16-38.04-3.98-4.37-8.3-8.43-12.46-12.64-1.5-1.51-1.13-2.94.5-4.54Z"/>
    <path class="cls-1" d="M2740.66,475.07c-.95,2.97-3.05,4.64-4.71,6.56-17.65,20.42-36.02,40.18-54.91,59.46-26.68,27.23-54.38,53.4-82.49,79.13-14,12.81-30.54,20.52-49.43,22.96-8.58,1.11-17.02.29-25.23-2.42-7.33-2.42-13.86-6.28-18.95-12.08-12.15-13.86-17.77-29.92-15.52-48.43.91-7.44,3.96-14.07,8.15-20.21,4.03-5.92,9.03-10.94,14.59-15.42,8.71-7.02,18.34-12.55,28.41-17.34,17.58-8.36,35.99-14.41,54.68-19.69,23.69-6.7,47.76-11.76,71.84-16.78,23.61-4.91,47.41-9,70.62-15.7.81-.23,1.74-.03,2.95-.03Z"/>
    <path class="cls-1" d="M2980.19,834.77c-2.11,2.38-4.86,2.58-7.26,3.38-26.01,8.7-52.36,16.23-78.96,22.89-38.76,9.7-77.87,17.77-117.19,24.81-15.65,2.8-31.11,1.27-45.93-4.93-7.27-3.05-13.85-7.18-19.38-12.84-8.47-8.67-12.94-19.05-13.24-31.2-.19-7.63.8-15.1,2.9-22.42,4.63-16.12,14.82-27.13,30.5-33.07,9.17-3.47,18.7-4.95,28.44-5.34,17.13-.69,33.98,1.56,50.71,4.88,30.44,6.05,59.93,15.46,89.16,25.71,19.62,6.88,39.19,13.94,58.8,20.85,5.57,1.96,11.23,3.67,16.83,5.53,1.5.5,2.95,1.12,4.61,1.76Z"/>
    <path class="cls-1" d="M2565.05,95.12c0,2.26.21,3.2-.03,4.01-9.79,33.37-16.11,67.59-24.87,101.22-6.68,25.63-13.91,51.1-23.85,75.7-4.52,11.19-9.44,22.22-15.83,32.48-3.74,6.01-7.91,11.78-12.23,17.39-3.91,5.07-8.67,9.36-13.95,13.04-12.54,8.75-26.1,10.47-40.52,5.8-8.18-2.65-15.55-6.91-22.37-12.1-16.83-12.82-22.77-29.55-17.73-50.13,1.93-7.86,5.07-15.24,8.86-22.36,6.13-11.54,13.71-22.09,21.92-32.22,13.88-17.13,29.17-32.96,45.37-47.86,17.41-16.01,35.26-31.54,52.87-47.33,13.03-11.69,25.98-23.46,38.98-35.18.66-.6,1.45-1.06,3.38-2.46Z"/>
    <path class="cls-1" d="M1721.53,117.42c1.49,1.17,2.42,1.83,3.28,2.57,6.63,5.71,13.03,11.7,19.91,17.09,9.3,7.3,18.92,14.21,28.49,21.17,10.04,7.3,20.92,12.95,33.06,15.85,3.63.86,6.39,2.73,8.78,5.55,8.1,9.57,16.37,19,24.46,28.58,12.27,14.54,21.82,30.91,31.2,47.35,5.31,9.31,8.64,19.44,10.06,30.12,2.15,16.25-2.67,29.94-15.38,40.51-9.64,8.02-20.82,13.13-32.99,15.76-10.07,2.18-19.75.44-28.75-4.74-6.02-3.47-11.12-8-15.71-13.16-6.01-6.76-10.91-14.29-15.22-22.2-8.52-15.64-14.84-32.2-20.29-49.11-8.22-25.47-14.37-51.46-19.8-77.64-3.74-18.06-7.21-36.18-10.78-54.27-.17-.86-.16-1.76-.31-3.43Z"/>
    <path class="cls-1" d="M2149.67,403.47c-.93-1.15-1.9-2.16-2.65-3.32-14.42-22.26-30.49-43.34-46.11-64.74-5.86-8.03-11.56-16.17-17.6-24.06-2.53-3.31-3.22-6.37-2.06-10.46,4.9-17.28,9.3-34.72,14.26-51.98,11.49-39.99,23.19-79.93,34.82-119.88.5-1.73,1.18-3.41,2.01-5.78.78,1.44,1.36,2.19,1.63,3.04,8.34,25.63,16.65,51.27,24.96,76.91,8.24,25.43,15.85,51.03,21.49,77.18,3.8,17.6,6.6,35.35,7.18,53.37.38,11.63-.41,23.17-3.51,34.46-1.64,5.97-3.99,11.63-7.44,16.8-6.47,9.69-15.45,15.72-26.99,18.46Z"/>
    <path class="cls-1" d="M2643.82,427.99c-1.02-3.38-1.77-5.49-2.3-7.65-3.58-14.41-3.78-29.08-2.56-43.74,1.3-15.64,4.89-30.81,11.14-45.27,4.74-10.96,10.94-20.9,19.64-29.25,7.47-7.18,16.03-12.45,25.67-16.07,12.27-4.6,25.06-6.94,37.99-8.43,14.33-1.65,28.71-2.89,43.05-4.48,9.88-1.1,19.69-2.71,29.18-5.77,7.95-2.56,15.45-6.03,21.47-12.02,2.33-2.31,4.34-4.94,7.17-8.19-.21,1.9-.22,2.91-.43,3.88-8.04,37.08-26.94,67.87-54.58,93.45-7.8,7.21-16.35,13.61-24.58,20.36-2.77,2.28-5.89,3.96-9.35,4.91-11.84,3.27-23.73,6.4-35.53,9.81-9.07,2.62-18.18,5.23-27.02,8.53-5.48,2.05-10.72,5.01-15.67,8.18-9.63,6.17-16.48,14.79-20.57,25.53-.64,1.69-1.44,3.32-2.7,6.21Z"/>
    <path class="cls-1" d="M2222.85,188.74c-.59-1.01-1.15-1.98-1.78-3.06,1.43-1.82,2.73-3.49,4.05-5.14,12.21-15.27,16.74-32.48,13.55-51.83-1.55-9.37-4.13-18.44-6.87-27.48-3.22-10.63-6.7-21.19-8.46-32.2-1.7-10.59-1.95-21.19.61-31.69,4.14-17.01,8.99-33.8,15.78-49.97,5.43-12.91,12.03-25.16,20.81-36.15,5.34-6.68,11.29-12.73,18.11-17.91.91-.69,1.88-1.32,3.53-2.47-.23,1.69-.16,2.6-.48,3.35-3.95,9.32-3.68,18.93-1.84,28.58,1.69,8.87,4.82,17.3,8.55,25.49,4.21,9.25,8.69,18.37,13.03,27.56,6.87,14.56,12.83,29.49,16.55,45.18,6.17,26.03,1,49.69-15.45,70.83-6.57,8.45-14.25,15.79-22.61,22.43-16.92,13.47-35.64,24.03-54.83,33.84-.59.3-1.29.38-2.24.64Z"/>
    <path class="cls-1" d="M1622.55,1223.26c.71,2.31,1.3,3.56,1.47,4.87,1.72,13.62,3.36,27.25,3.01,41.02-.32,12.34-1.83,24.51-5.31,36.41-5.66,19.36-16.34,35.58-30.8,49.4-6.43,6.14-14.22,10.13-22.52,13.15-10.29,3.73-20.95,5.89-31.79,7.07-14.81,1.61-29.67,2.84-44.5,4.32-10.6,1.06-21.14,2.54-31.36,5.7-7.75,2.4-15.1,5.67-21.05,11.35-2.7,2.57-4.99,5.56-7.85,8.8-.9-2.1-.37-3.87-.03-5.54,2.69-13.05,7.04-25.51,13.15-37.36,5.12-9.91,11.21-19.2,17.99-28.04,8.65-11.3,18.28-21.73,28.35-31.76,8.35-8.32,18.37-14.04,29.33-18.22,9.53-3.64,19.44-5.92,29.3-8.39,7.11-1.78,14.21-3.61,21.25-5.63,3.63-1.04,7.16-2.43,10.66-3.86,16.99-6.95,29.19-18.94,36.98-35.5,1.08-2.3,2.2-4.59,3.73-7.79Z"/>
    <path class="cls-1" d="M1532.49,1069.83c-2.41-.15-4.52-.17-6.6-.42-21.26-2.48-39.83,3.55-55.54,17.96-6.09,5.59-11.63,11.79-17.42,17.7-6.46,6.59-12.67,13.45-19.45,19.69-10.25,9.44-22.14,16.21-35.78,19.49-19.79,4.77-39.66,9.14-60.08,10.21-18.17.95-35.92-1.04-52.88-8.05-1.38-.57-3.31-.6-3.81-3.04.88-.2,1.72-.52,2.57-.57,9.33-.56,17.49-4.2,24.59-9.99,4.75-3.87,9.36-8.06,13.29-12.74,6.24-7.41,11.95-15.27,17.7-23.09,6.31-8.58,12.27-17.41,18.62-25.96,7.07-9.52,14.88-18.4,23.99-26.07,11.07-9.32,23.5-15.95,37.87-18.35,12.28-2.06,24.52-1.31,36.64,1.54,13.2,3.11,25.82,7.87,37.68,14.4,11.81,6.5,23.35,13.5,35.04,20.22,2.46,1.42,4.07,3.17,3.59,7.05Z"/>
    <path class="cls-1" d="M1282.72,506.78c1.57-.6,2.97-1.27,4.43-1.68,22.39-6.27,45.15-7.68,68.21-5.19,23.76,2.57,46.24,9.46,67.87,19.5,7.07,3.28,12.81,7.98,17.48,14.1,1.72,2.26,3.37,4.57,5.08,6.84,7.02,9.3,14.94,17.73,24.26,24.77,16.56,12.51,35.11,19.29,55.96,19.46,1.89.02,3.78.11,5.66.2.15,0,.29.31.61.67-.25.47-.41,1.21-.86,1.54-17.9,12.93-36.71,24.26-57.38,32.22-10.63,4.1-21.57,6.91-33,7.93-17.86,1.59-34.29-2.34-49.39-11.95-8.65-5.5-16.31-12.22-22.94-19.99-6.29-7.37-12.31-15-18.11-22.76-6.51-8.71-12.51-17.82-19.01-26.54-4.52-6.06-9.25-12-14.32-17.61-9.06-10.01-19.58-17.83-33.37-20.13-.33-.05-.56-.65-1.18-1.41Z"/>
    <path class="cls-1" d="M2983.46,1144.17c-2.62,1.23-4.01,2-5.48,2.57-17.27,6.71-35.19,8.9-53.61,7.66-22.58-1.52-44.16-7.6-65.76-13.87-15.09-4.39-27.37-12.57-37.27-24.58-3.76-4.56-7.53-9.12-11.32-13.66-1.67-2-3.38-3.95-5.11-5.9-14.32-16.23-32.41-24.88-53.86-26.75-4.24-.37-8.49-.63-12.73-1-.62-.05-1.21-.4-2.38-.81.93-1.16,1.52-2.12,2.32-2.85,23.7-21.75,51.16-35.72,83.45-38.51,29.1-2.51,53.99,7.13,73.84,28.83,3.82,4.17,7.13,8.82,10.51,13.37,12.41,16.7,24.68,33.5,37.16,50.15,3.11,4.15,6.61,8.04,10.22,11.77,6.95,7.19,15.24,11.89,25.43,12.73,1.1.09,2.17.39,4.59.84Z"/>
    <path class="cls-1" d="M2044.37,1467.61c-1.72,2.25-3.32,4.29-4.86,6.37-7.14,9.65-12.21,20.17-13.9,32.2-1.17,8.34-.42,16.56,1.58,24.62,2.05,8.25,4.71,16.34,6.98,24.53,2.4,8.65,4.97,17.26,6.89,26.02,3.58,16.29,2.59,32.51-2.69,48.29-4.2,12.54-8.85,24.95-13.71,37.25-4.09,10.35-9.28,20.19-15.58,29.4-5.78,8.45-12.51,16.02-20.65,22.28-1.47,1.13-3.06,2.11-5.41,3.71.21-1.69.12-2.55.42-3.23,4.8-10.7,4.56-21.62,1.21-32.57-1.58-5.19-3.6-10.26-5.69-15.27-8.45-20.29-17-40.55-25.51-60.81-4.14-9.86-7.06-20.01-8.32-30.68-2.11-17.86,1.78-34.29,11.1-49.53,5.22-8.54,11.82-15.94,19.14-22.72,7.83-7.25,16.22-13.84,25.29-19.42,12.28-7.55,24.84-14.65,37.28-21.93.81-.48,1.65-.93,2.53-1.27,2.05-.8,3.06.31,3.88,2.75Z"/>
    <path class="cls-1" d="M1983.95-69.8c2.75,2.41,4.57,3.86,6.23,5.47,10.94,10.62,20.13,22.62,27.66,35.87,14.99,26.37,22.77,54.91,25.62,84.96.78,8.19-.36,16.05-3.22,23.69-1.33,3.54-2.76,7.05-4.23,10.54-5.29,12.55-8.49,25.61-9.06,39.21-.72,17.16,3.2,33.34,11.12,48.56.98,1.88,1.94,3.77,2.88,5.67.08.16-.04.43-.14,1.17-1.12-.28-2.23-.42-3.23-.84-15.7-6.69-30.94-14.26-45.07-23.91-8.23-5.62-15.96-11.86-22.81-19.12-10.94-11.6-18.78-24.88-21.97-40.68-2.24-11.06-1.96-22.12-.09-33.17,2.21-13.13,6.35-25.72,11.4-37.99,5.13-12.47,10.64-24.78,15.83-37.23,4.55-10.92,8.81-21.94,10.92-33.68,1.45-8.05,1.5-15.99-.72-23.9-.3-1.08-.53-2.17-1.12-4.63Z"/>
    <path class="cls-1" d="M2983.49,508.76c-11.95,1.1-21.28,6.32-29.66,13.71-6.24,5.51-11.62,11.8-16.48,18.52-5.54,7.66-11,15.39-16.23,23.27-7.73,11.66-16.68,22.38-25.9,32.83-4.51,5.11-9.66,9.78-15.07,13.92-17.85,13.66-38.22,17.94-60.27,15.05-12.03-1.58-23.54-5.13-34.73-9.73-18.22-7.49-35.17-17.35-51.7-27.97-.76-.49-1.38-1.21-2.27-2.02.63-1.13,1.18-2.1,1.65-2.95,5.67.29,11.09.79,16.5.81,14.94.06,28.48-4.42,40.11-13.79,5.69-4.58,10.9-9.79,16.03-15,5.14-5.22,9.87-10.84,14.84-16.23,5.63-6.09,11.63-11.77,18.32-16.71,9.65-7.13,20.33-12.05,32.04-14.58,11.08-2.4,22.2-4.68,33.37-6.66,15.43-2.73,30.99-3.73,46.63-2.16,10.42,1.05,20.48,3.56,30.01,7.99.99.46,1.88,1.12,2.82,1.69Z"/>
    <path class="cls-1" d="M1623.06,426c-.9-1.59-1.87-3.15-2.7-4.77-9.09-17.67-23.05-29.68-41.77-36.33-10.06-3.57-20.49-5.69-30.8-8.29-8.25-2.08-16.49-4.24-24.56-6.91-12.78-4.22-23.84-11.32-33.32-20.96-8.8-8.94-17.53-17.94-25.33-27.79-13.03-16.48-23.48-34.35-29.46-54.62-1.27-4.3-2.32-8.68-3.3-13.06-.38-1.72-.3-3.54-.54-6.81,1.5,1.81,2.11,2.45,2.6,3.16,5.44,7.88,13.01,12.95,21.76,16.44,9.97,3.98,20.45,5.87,31.04,7.05,14.34,1.6,28.72,2.81,43.06,4.38,11.77,1.29,23.47,3.18,34.69,7.05,5.79,2,11.54,4.31,16.97,7.14,15.94,8.3,27.06,21.16,34.23,37.53,4.49,10.26,7.2,21.03,8.69,32.08,2.89,21.47,2.22,42.94-1.25,64.69Z"/>
    <path class="cls-1" d="M2284.49,1724.34c-.84.44-1.82.96-3.11,1.64-2.07-2.1-4.12-4.04-6.01-6.11-12.08-13.22-21.24-28.34-28.7-44.55-8.22-17.88-14.05-36.61-19.65-55.42-1.08-3.62-1.85-7.36-3.15-10.9-3.41-9.29-3.03-18.59-.39-27.89,1.74-6.13,3.66-12.22,5.78-18.23,3.39-9.6,6.34-19.28,7.88-29.4,3.17-20.83-.12-40.48-10.03-59.06-.99-1.86-1.97-3.74-2.91-5.51.97-1.63,2.1-.93,3.11-.51,17.27,7.24,33.93,15.62,49.19,26.59,8.48,6.1,16.29,12.95,23.04,20.95,9.99,11.83,16.62,25.25,18.78,40.66,1.59,11.36.79,22.64-1.58,33.84-2.61,12.31-6.69,24.14-11.53,35.71-4.56,10.9-9.36,21.71-13.95,32.6-4.49,10.68-8.79,21.42-11,32.88-2.08,10.78-1.76,21.17,4.01,30.9.21.36.12.89.22,1.79Z"/>
    <path class="cls-1" d="M2133.78,1527.71c-2.1.35-2.94-.62-3.35-2.17-.83-3.2-1.51-6.46-2.51-9.61-5.59-17.58-11.16-35.17-16.93-52.69-8.72-26.52-17.46-53.03-23.99-80.2-2.26-9.43-4.15-18.94-6.11-28.44-.52-2.51-.65-5.1-.96-7.73,1.79-1.35,3.21-2.59,4.78-3.58,12.43-7.79,24.87-15.56,37.34-23.28,11.87-7.35,23.91-14.43,35.62-22.03,7.13-4.63,13.77-10.02,20.64-15.06,1.28-.94,2.61-1.8,4.25-2.93,2.61,4.28,3.29,8.74,4.1,13.07,2.45,13.14,2.24,26.39.94,39.62-2.85,28.86-9.95,56.84-18.52,84.43-8.14,26.2-17,52.17-25.41,78.29-2.97,9.23-5.51,18.59-8.28,27.88-.46,1.56-1.1,3.06-1.61,4.43Z"/>
    <path class="cls-1" d="M2710.42,1144.96c-2.36-.75-3.66-1.1-4.91-1.57-37.01-13.91-75.01-24.52-113.4-33.83-31.24-7.57-62.43-15.33-93.64-23.03-1.83-.45-3.62-1.04-5.51-1.58-5.52-9.1-6.37-18.91-4.13-28.82,3.4-15,11.39-27.46,23.26-37.23,11.11-9.15,24.05-11.63,38.04-9.31,7.75,1.28,15.09,3.87,22.2,7.19,9.9,4.62,19.08,10.43,27.9,16.83,12.47,9.04,24.07,19.13,35.23,29.72,25.95,24.62,49.51,51.47,72.98,78.4.56.64.91,1.46,1.98,3.21Z"/>
    <path class="cls-1" d="M2011.63,1397.78c-1.03,2.06-1.96,4.18-3.09,6.17-11.9,20.87-27.47,38.4-47.34,52.03-19.33,13.26-33.98,30.65-45.09,51.15-8.39,15.47-14.16,31.95-19.03,48.8-6.5,22.5-11.7,45.31-16.99,68.11-2.83,12.2-5.7,24.4-8.59,36.59-.38,1.6-.75,3.3-1.6,4.65-.45.72-1.91.8-3.23,1.29-.76-2.14-1.5-3.86-1.97-5.65-6.2-23.35-10.56-47.03-13.1-71.07-2.22-20.98-3.04-41.99-2.48-63.06.25-9.45,1.06-18.89,1.44-28.35.13-3.15,1.44-5.25,3.9-7.1,8.74-6.53,17.75-12.46,27.87-16.79,37.14-15.89,71.61-36.45,104.24-60.17,6.31-4.59,12.58-9.25,18.87-13.86,1.69-1.24,3.42-2.45,5.12-3.67.35.31.71.61,1.06.92Z"/>
    <path class="cls-1" d="M2527.47,1335.6c5.11.64,9.78,1.15,14.43,1.82,20.38,2.93,40.8,5.47,61.35,6.96,1.18.09,2.45-.04,3.51.38,1.24.49,2.39,1.35,3.38,2.26.66.61.99,1.6,1.45,2.43,6.96,12.45,15.25,23.96,24.9,34.45,2.55,2.77,3.72,5.61,3.82,9.46.41,16.34,1.89,32.59,4.61,48.72.19,1.12.24,2.27.42,4.1-2.26-.84-4-1.33-5.61-2.11-10.86-5.27-21.68-10.61-32.52-15.89-6.17-3-12.33-6.04-18.57-8.87-11.47-5.21-20.77-13.06-28.39-23-5.35-6.97-9.81-14.5-13.85-22.28-6.2-11.97-12.32-23.99-18.46-36-.2-.4-.18-.91-.46-2.43Z"/>
    <path class="cls-1" d="M1907.1,314.45c1.26,1.62,2.02,2.5,2.68,3.45,6.92,9.89,13.77,19.81,20.73,29.67,10.26,14.53,19.45,29.66,26.56,46.01,1.69,3.87,3.59,7.65,5.69,12.09-4,.12-6.79-1.8-9.86-2.52-3.45-.8-6.84-1.89-10.3-2.64-3.23-.71-6.5-1.28-9.78-1.67-3.52-.42-7.06-.67-10.6-.82-3.3-.13-6.61-.03-9.69-.03-16.49-16.78-22.24-40.05-14.42-60.98,2.71-7.26,5.73-14.41,8.99-22.56Z"/>
    <path class="cls-1" d="M1869.5-12.78c2.46-.11,2.87,1.56,3.24,3.19,1.26,5.53,2.45,11.07,3.71,16.59,4.93,21.64,9.8,43.3,16.04,64.62.25.87.24,1.81.47,3.63-1.48-1.1-2.44-1.59-3.09-2.34-9.45-10.88-18.83-21.83-28.32-32.68-2.18-2.49-3.28-5.02-2.52-8.35,3.2-14.04,6.32-28.1,9.5-42.14.2-.89.67-1.72.98-2.52Z"/>
  </g>
</svg>