<?xml version="1.0" encoding="UTF-8"?>
<svg id="Layer_1" xmlns="http://www.w3.org/2000/svg" viewBox="0 0 863.84 226.77">
  <style>
  .color { fill: black; }
  </style>
  <g>
    <path class="color" d="M79.01,89.26c-.09.42-.15.74-.23,1.05-.12.51-.39.93-.78,1.28-.96.85-2.95,1.4-4.44.08-1.08-.95-2.2-1.84-3.4-2.63-.37-.24-.62-.57-.73-.99-.11-.43-.25-.87-.24-1.31,0-.8.54-1.18,1.33-1.02.29.06.57.18.86.24.15.03.32,0,.62,0-.19-.2-.27-.32-.38-.41-1.79-1.59-2.57-3.63-2.63-5.97-.02-.92.07-1.85.17-2.77.19-1.72.51-3.43,1.07-5.08.91-2.68,2.45-4.9,4.77-6.56.46-.33.95-.62,1.46-.86.86-.41,1.78-.51,2.71-.22.5.15.99.16,1.5.1,1.9-.24,3.68.16,5.38,1.01.24.12.48.24.71.38,1.3.82,2.71.83,4.15.59.44-.08.87-.23,1.31-.29.74-.11,1.08.07,1.28.78.2.72.67,1.11,1.3,1.37.36.15.73.27,1.09.4.71.26,1.25.69,1.45,1.46.1.4.36.59.83.52.09-.45-.11-.82-.3-1.18-.59-1.14-1.17-2.29-1.77-3.42-1.14-2.14-2.29-4.26-3.42-6.4-.56-1.06-1.12-2.11-1.62-3.2-.98-2.16-2.14-4.21-3.54-6.12-2.72-3.72-5.12-7.64-7.51-11.58-1.38-2.27-2.78-4.53-4.24-6.76-.77-1.17-1.69-2.24-2.53-3.36-.81-1.07-1.91-1.69-3.16-2.1-.42-.14-.86-.25-1.29-.37-.79-.2-1.53-.53-2.18-1.01-1.61-1.19-3.21-2.39-4.81-3.6-.38-.29-.71-.64-1.05-.97-.13-.12-.26-.27-.32-.43-.12-.28-.14-.59.07-.85.17-.21.43-.21.66-.17.23.04.46.13.67.23.78.37,1.56.76,2.34,1.13.24.11.48.22.81.36,0-.22.02-.36,0-.49-.1-.41-.28-.78-.54-1.12-1.15-1.57-2.32-3.11-3.61-4.57-.79-.9-1.57-1.8-2.34-2.72-.21-.25-.39-.53-.56-.81-.17-.29-.08-.5.24-.64.21-.09.43-.15.71-.25-.2-.29-.37-.53-.52-.78-.2-.33-.4-.66-.58-1.01-.18-.36-.18-.75-.09-1.14.09-.39.51-.54.83-.28.16.13.29.3.43.45.22.24.44.48.7.76.3-.32.56-.59.86-.92.46.21.82.55,1.14.94.46.55.9,1.12,1.35,1.68.15.18.31.35.47.53.4-.38.16-.91.43-1.33.37,0,.65.2.89.47.08.09.14.19.2.29,2.25,3.44,4.82,6.62,7.51,9.71,3.22,3.7,6.47,7.37,9.66,11.09,3.13,3.66,6.2,7.36,9.28,11.06.5.6.95,1.23,1.41,1.86,3.37,4.65,6.71,9.31,10.1,13.94,2.79,3.82,5.36,7.77,7.52,11.99,1.09,2.13,2.08,4.3,2.93,6.54.7,1.86,1.62,3.6,2.79,5.19.88,1.2,1.82,2.37,2.76,3.53.63.79,1.32,1.55,1.95,2.34.38.48.84.83,1.39,1.1,1.36.69,2.71,1.4,4.05,2.12.9.48,1.72,1.07,2.48,1.77,1.95,1.8,3.03,4.05,3.42,6.64.4,2.69.89,5.36,1.45,8.02.19.9.42,1.81.72,2.68,1.47,4.24,1.95,8.61,1.72,13.07-.13,2.48,0,4.96.19,7.43.38,4.8,1.25,9.53,2.16,14.26.14.7.31,1.4.39,2.11.11.87.59,1.31,1.41,1.5,2.06.49,4.12.99,6.18,1.5,7.71,1.9,15.43,3.78,23.14,5.73,5.63,1.43,11.07,3.41,16.37,5.78,1.56.7,3,1.62,4.37,2.63,1.6,1.17,2.38,2.8,2.52,4.75.05.62.02,1.26-.01,1.88-.06,1.04-.14,2.09-.22,3.13-.16,2.12-.15,4.24,0,6.36.35,4.83.58,9.67.4,14.51-.14,3.91-.26,7.83-.36,11.74-.04,1.34-.02,2.69,0,4.03.04,2.1.86,3.89,2.29,5.4.53.56,1.13,1.07,1.75,1.53,2.31,1.71,4.76,3.21,7.27,4.59.47.26.98.43,1.5.58,1.18.34,2.38.57,3.6.68.24.02.48.05.71.11.46.12.65.34.68.72.04.51-.18.93-.61,1.08-.19.07-.41.09-.62.09-.3,0-.6-.04-.89-.06-.92-.06-1.85-.14-2.77-.18-1.19-.06-2.39-.09-3.58-.13-1.02-.04-2.03-.19-3.01-.45-.88-.23-1.76-.34-2.66-.31-.84.03-1.67.09-2.51.14-.09,0-.18.02-.27.02-2.75.09-5.5.18-8.24.25-.47.01-.96-.05-1.41-.17-.97-.25-1.51-.91-1.62-1.91-.07-.63-.01-1.26.14-1.87.28-1.16.58-2.32.89-3.47.38-1.43.53-2.87.47-4.35-.04-.99-.23-1.96-.48-2.91-1.37-5.08-2.74-10.15-4.09-15.23-.95-3.57-1.44-7.21-1.32-10.91.05-1.49.25-2.98.38-4.46.08-.89.16-1.78.24-2.68,0-.09,0-.18,0-.27-.05-.96-.51-1.49-1.45-1.66-.35-.06-.71-.09-1.07-.08-3.11.09-6.21-.11-9.31-.41-3.6-.35-7.17-.89-10.75-1.43-2.9-.43-5.79-.86-8.68-1.32-4.01-.64-8.02-1.28-12-2.12-1.76-.37-3.45-.97-5.15-1.54-2.32-.78-4.63-1.59-6.97-2.32-1.8-.56-3.66-.85-5.57-.81-.84.02-1.67.13-2.47.37-.75.22-1.46.57-2.02,1.12-2.13,2.09-4.61,3.71-7.18,5.18-3.22,1.85-6.33,3.85-9.33,6.04-1.42,1.04-2.85,2.07-4.28,3.12-1.69,1.24-3.36,2.49-5.06,3.72-3.93,2.85-8.1,5.3-12.57,7.21-.82.35-1.6.8-2.36,1.28-.8.51-1.58,1.08-2.32,1.68-4.44,3.56-9.18,6.68-14.16,9.43-3.08,1.71-6.23,3.3-9.33,4.97-2.34,1.26-4.66,2.56-6.99,3.85-.34.19-.66.42-.95.67-.63.56-.97,1.28-1.02,2.12-.02.3,0,.6-.02.9-.1,1.13-.72,1.88-1.82,2.18-.26.07-.53.1-.79.13-1.43.17-2.53.85-3.28,2.09-.25.41-.44.85-.66,1.27-.29.56-.54,1.14-.88,1.66-.36.55-.75,1.09-1.22,1.54-1.22,1.17-1.16,1.11-2.82.95-.28-.31-.58-.64-.92-1.02-.24.01-.51,0-.76.04-.56.12-1-.08-1.37-.48-.63-.68-1.27-1.35-1.88-2.04-.32-.36-.3-.73.06-1.11.61-.66,1.24-1.3,1.86-1.95.97-1.02,1.95-2.02,2.78-3.17.3-.41.67-.77,1.03-1.12,3.28-3.23,6.56-6.46,9.85-9.67,3.91-3.82,7.83-7.64,11.76-11.45,1.84-1.79,3.71-3.56,5.57-5.34,1.17-1.12,2.47-2.08,3.85-2.93.87-.53,1.74-1.05,2.63-1.55,1.96-1.1,3.33-2.69,4.09-4.81.15-.42.34-.84.61-1.18,1.96-2.47,3.31-5.25,4.19-8.26.52-1.78.95-3.58,1.38-5.38,1.79-7.39,4.19-14.58,7.29-21.53,1.83-4.09,2.98-8.38,3.52-12.83.2-1.66.3-3.33.37-5,.11-2.45.28-4.89.42-7.34.04-.75.07-1.49.15-2.24.29-2.69,1.2-5.17,2.55-7.5,1.06-1.84,2.19-3.64,3.26-5.47,1.04-1.78,2.05-3.58,3.06-5.37,1.14-2.02,1.24-4.14.58-6.33-.3-1.01-.93-1.73-1.87-2.17-.38-.18-.77-.33-1.17-.45-.46-.14-.87.07-.96.54-.13.69-.57,1.09-1.13,1.42-1.09.63-2.23,1.01-3.5.85-.41-.05-.82-.16-1.22-.28-.83-.25-1.65-.54-2.47-.8-.17-.05-.35-.09-.58-.15ZM73.89,173.85c.14-.15.31-.31.46-.49.82-.99,1.64-1.98,2.43-2.99.79-1.01,1.59-2.02,2.33-3.07,3.16-4.57,6.87-8.66,11.09-12.27,1.36-1.17,2.7-2.36,4.04-3.55,3.28-2.91,5.89-6.34,7.93-10.21,1.65-3.13,2.9-6.42,3.88-9.82.36-1.26.72-2.53.95-3.82.36-1.98-.27-3.67-1.78-4.99-.51-.45-1.09-.84-1.69-1.17-1.92-1.03-3.86-2.04-5.8-3.02-.42-.21-.9-.33-1.36-.42-1.01-.19-1.76.15-2.26,1.04-.57,1.02-1.04,2.09-1.28,3.24-.76,3.66-1.5,7.31-2.23,10.97-.37,1.87-.66,3.77-1.07,5.63-1.3,5.87-3.62,11.3-7,16.29-1.76,2.6-3.39,5.28-5.03,7.95-1.88,3.06-3.18,6.35-3.89,9.87-.03.15-.06.29-.07.44-.02.22.12.32.37.38ZM102.02,83.72c0-.16,0-.19,0-.22-.81-3.33-1.62-6.66-2.44-9.99-.02-.09-.05-.17-.08-.25-.08-.2-.37-.25-.52-.09-.08.09-.15.19-.21.29-.46.73-.91,1.47-1.36,2.21-.52.85-.59,1.74-.22,2.65.17.41.39.8.57,1.21.79,1.84,2.19,3.09,3.88,4.08.09.05.21.07.38.12Z"/>
    <path class="color" d="M184.23,31.77c-.25.23-.39.37-.55.5-4.42,3.55-8.31,7.64-12.02,11.91-1.87,2.16-3.08,4.68-3.92,7.39-.47,1.51-.79,3.06-1.08,4.62-.53,2.81-1.49,5.47-2.99,7.92-.63,1.02-1.36,1.97-2.22,2.81-2.13,2.08-4.68,3.15-7.67,3.11-1.05-.01-2.09,0-3.13.13-3.01.37-5.71,1.47-8.12,3.29-.45.34-.88.72-1.32,1.08-.13.11-.27.2-.38.28-.21-.09-.18-.23-.18-.34-.17-2.66-.22-5.32.04-7.97.16-1.61.43-3.2,1.03-4.71.21-.53.44-1.05.72-1.54,1.3-2.31,3.31-3.53,5.92-3.84.86-.1,1.72-.22,2.56-.43,1.77-.46,3.29-1.4,4.6-2.66,1.17-1.13,2.12-2.43,2.93-3.84.43-.75.81-1.53,1.21-2.3.12-.24.25-.48.35-.73,1.18-2.76,3.09-4.95,5.37-6.84,2.55-2.11,5.4-3.73,8.46-5,3.24-1.35,6.6-2.27,10.06-2.86.06,0,.12,0,.35.03Z"/>
    <path class="color" d="M144.54,23.98c-.07,1.11-.18,3.08-.31,5.05-.05.75-.3,1.46-.65,2.13-.37.71-.76,1.42-1.2,2.1-1.54,2.39-2.74,4.96-3.95,7.53-.23.49-.4,1-.6,1.5-.69,1.79-.76,3.61-.32,5.46.19.81.44,1.61.71,2.4.37,1.05.64,2.11.67,3.23.04,1.47-.32,2.84-1.03,4.12-.51.92-1.16,1.74-1.89,2.49-1.05,1.07-2.23,1.99-3.47,2.83-1.93,1.31-3.99,2.41-6.03,3.52-.05.03-.1.06-.16.08-.14.06-.28.11-.42,0-.15-.11-.12-.26-.07-.4.05-.17.13-.33.19-.5.52-1.46.69-2.95.57-4.5-.16-1.92-.65-3.76-1.27-5.57-.2-.59-.52-1.14-.84-1.67-.74-1.2-1.35-2.46-1.71-3.83-.64-2.45-.45-4.86.42-7.22.89-2.42,2.34-4.49,4.12-6.35.91-.95,1.89-1.82,2.97-2.58,2.43-1.72,4.31-3.94,5.76-6.53,1.27-2.25,2.16-4.66,2.87-7.13.72-2.5,1.25-5.04,1.79-7.58.35-1.64.71-3.27,1.07-4.9.08-.36.24-.55.4-.51.25.06.26.3.31.49.59,2.1,1.04,4.23,1.37,6.39.47,3.02.67,6.06.7,9.96Z"/>
    <path class="color" d="M217.32,89.22c-.17.22-.22.3-.28.36-1.98,1.78-3.95,3.57-5.94,5.33-1.37,1.21-2.8,2.34-4.3,3.37-1.16.8-2.36,1.52-3.62,2.15-3.23,1.62-6.64,2.34-10.24,1.99-1.98-.19-3.94-.02-5.91.12-.39.03-.77.09-1.16.12-2.67.21-4.96,1.26-6.84,3.16-.61.62-1.16,1.28-1.75,1.92-.42.46-.84.94-1.28,1.37-1.19,1.17-2.62,1.72-4.3,1.66-1.02-.04-2.01-.23-2.99-.52-1.41-.41-2.76-.97-4.09-1.59-2.09-.98-4.1-2.09-6.08-3.26-.15-.09-.29-.2-.46-.31.18-.33.51-.33.77-.43,2.2-.85,4.17-2.06,5.91-3.65,1.42-1.3,2.62-2.79,3.66-4.4.24-.38.48-.76.71-1.14,1.53-2.64,3.84-4.19,6.8-4.83,1.74-.38,3.49-.42,5.26-.24,2.61.27,5.1.96,7.51,1.96,3.12,1.29,6.37,1.73,9.74,1.41,2.18-.21,4.3-.7,6.41-1.25,3.79-.98,7.56-2.01,11.34-3.01.31-.08.63-.16,1.12-.29Z"/>
    <path class="color" d="M216.97,137.85c-.47-.15-.74-.23-1.02-.32-2.23-.77-4.45-1.56-6.69-2.3-2.36-.78-4.76-1.39-7.2-1.82-2.37-.41-4.75-.58-7.14-.41-2.31.16-4.54.68-6.68,1.59-2.81,1.21-5.74,1.82-8.81,1.76-1.84-.04-3.62-.35-5.33-1.05-2.38-.97-4.23-2.55-5.5-4.79-.81-1.44-1.75-2.78-2.88-3.98-1.97-2.09-4.34-3.53-7.06-4.44-.28-.09-.56-.19-.9-.3.12-.12.19-.22.29-.28,1.78-1.05,3.54-2.11,5.34-3.12,1.51-.85,3.1-1.53,4.8-1.95,1.53-.38,3.07-.48,4.62-.31,1.18.14,2.26.6,3.18,1.34.58.46,1.11,1,1.62,1.54.5.52.95,1.07,1.42,1.62,1.86,2.17,4.22,3.38,7.07,3.61,2.53.2,5.07.27,7.61.02,2.08-.21,4.11.13,6.1.75,1.95.61,3.77,1.5,5.52,2.55,2.75,1.66,5.25,3.65,7.55,5.89,1.18,1.14,2.28,2.36,3.41,3.56.2.21.38.45.69.84Z"/>
    <path class="color" d="M.55,88.75c.36.08.64.14.93.23,2.54.77,5.08,1.55,7.63,2.31,2.43.73,4.88,1.39,7.39,1.79,3.06.5,6.12.59,9.17-.08,1.35-.3,2.65-.73,3.9-1.31,1.53-.71,3.12-1.21,4.78-1.48,2.76-.46,5.48-.34,8.14.56,2.83.96,5.02,2.71,6.48,5.34,1.07,1.92,2.43,3.62,4.1,5.05,1.68,1.44,3.6,2.45,5.71,3.1.28.09.55.17.9.28-.14.13-.21.22-.3.28-2.61,1.64-5.26,3.19-8.11,4.38-1.35.57-2.74,1.02-4.2,1.25-2.17.34-4.1-.15-5.72-1.66-.5-.47-.97-.97-1.44-1.47-.6-.63-1.17-1.28-1.78-1.89-2.04-2.07-4.53-3.18-7.42-3.34-1.28-.07-2.57-.06-3.85-.05-1.52,0-3.05.06-4.57.05-1.4-.02-2.8-.16-4.18-.47-2.08-.46-3.94-1.36-5.62-2.66-2.17-1.69-4.34-3.37-6.51-5.06-1.72-1.34-3.39-2.74-4.87-4.36-.19-.21-.43-.4-.56-.79Z"/>
    <path class="color" d="M0,137.2c.14-.18.18-.26.24-.32,2.25-2.01,4.48-4.04,6.75-6.03,1.48-1.3,3.07-2.47,4.74-3.52,1.96-1.23,4.01-2.24,6.25-2.85,2.13-.58,4.28-.78,6.48-.53.3.03.6.05.89.06,2.52.09,5.01-.16,7.5-.47,1.65-.2,3.08-.91,4.35-1.96.76-.63,1.42-1.36,2.02-2.15.36-.48.73-.95,1.15-1.37,1.66-1.7,3.7-2.46,6.07-2.36,1.42.06,2.77.4,4.1.88,1.35.49,2.66,1.09,3.89,1.81,1.62.95,3.21,1.95,4.82,2.94.1.06.18.15.26.21-.04.27-.24.25-.4.29-1.14.26-2.24.63-3.3,1.13-2.71,1.27-4.81,3.18-6.15,5.89-.68,1.37-1.55,2.62-2.64,3.71-1.94,1.94-4.3,2.97-6.99,3.29-2.62.32-5.18-.05-7.73-.64-2.13-.49-4.2-1.16-6.24-1.93-.96-.37-1.95-.55-2.96-.65-2.76-.28-5.49-.06-8.2.44-3.27.61-6.42,1.62-9.57,2.66-1.44.48-2.89.96-4.33,1.44-.2.07-.4.13-.6.16-.1.01-.21-.06-.4-.13Z"/>
    <path class="color" d="M74.89,59.37c-.74.41-1.47.76-2.14,1.19-.65.42-1.28.89-1.86,1.39-.61.52-1.2,1.08-1.73,1.68-.54.6-1.03,1.24-1.48,1.91-.44.64-.82,1.32-1.18,2.01-.37.71-.67,1.46-1.01,2.2-1.25.14-2.46.04-3.66-.19-2.68-.52-4.89-1.86-6.66-3.93-1.26-1.47-2.18-3.13-2.9-4.92-.88-2.2-1.42-4.5-1.74-6.84-.28-2.03-.93-3.95-1.81-5.79-.88-1.84-2.02-3.52-3.3-5.1-1.36-1.67-2.85-3.22-4.42-4.7-1.8-1.7-3.62-3.39-5.43-5.08-.5-.47-.99-.95-1.47-1.44-.12-.12-.2-.27-.32-.42.33-.13.58-.01.84.05,2.33.56,4.58,1.35,6.77,2.32,1.8.8,3.58,1.65,5.36,2.49,1.38.65,2.73,1.34,4.12,1.97,1.62.74,2.95,1.82,3.97,3.26.62.88,1.17,1.8,1.69,2.74.58,1.04,1.09,2.12,1.63,3.19.61,1.2,1.3,2.35,2.09,3.44.65.9,1.37,1.74,2.19,2.48,1.52,1.38,3.3,2.24,5.28,2.73.84.21,1.7.35,2.53.57.78.21,1.56.43,2.3.73.98.41,1.76,1.1,2.35,2.05Z"/>
    <path class="color" d="M125.23,170.66c2.24.74,4.39,1.47,6.54,2.17,2.16.7,4.42,1,6.66,1.47.01.5-.21.9-.36,1.31-.28.75-.6,1.5-.82,2.27-.64,2.31-.48,4.61.24,6.89.52,1.63,1.28,3.16,2.18,4.6.56.89,1.17,1.74,1.73,2.61.55.85,1.12,1.7,1.62,2.58.81,1.43,1.22,2.96,1.24,4.62.04,2.84.01,5.68-.25,8.51-.34,3.69-.96,7.34-1.92,10.93-.04.14-.06.3-.12.43-.11.24-.3.25-.58.12-.23-.58-.26-1.24-.37-1.88-.58-3.33-1.21-6.64-2.17-9.88-.86-2.93-1.99-5.75-3.48-8.43-1.26-2.26-2.91-4.15-4.95-5.72-1.74-1.34-3.29-2.86-4.64-4.59-1.37-1.75-2.49-3.65-3.16-5.79-1.01-3.26-.71-6.36,1.08-9.3.46-.76.83-1.59,1.24-2.38.08-.16.16-.32.26-.53Z"/>
    <path class="color" d="M33.47,194.61c.29-.32.46-.52.65-.7,1.39-1.31,2.78-2.62,4.17-3.94,1.43-1.36,2.88-2.7,4.28-4.08,1.45-1.43,2.78-2.96,3.96-4.62,1.47-2.06,2.61-4.28,3.28-6.73.32-1.16.45-2.34.61-3.53.39-2.72,1.21-5.29,2.54-7.7.79-1.42,1.75-2.71,2.93-3.82,2.26-2.12,4.94-3.18,8.04-3.18,1.13,0,2.26-.04,3.45-.07,0,.07.05.19.02.28-1.02,3.4-1.76,6.88-2.66,10.32-.45,1.71-1.07,3.36-1.89,4.92-.25.48-.57.9-.96,1.28-1.63,1.57-2.9,3.4-3.82,5.47-.2.46-.48.79-.93,1.04-.71.39-1.39.81-2.08,1.24-1.68,1.04-3.26,2.22-4.69,3.59-2.11,2.03-4.23,4.05-6.32,6.1-.54.53-1.13.94-1.85,1.21-2.23.84-4.45,1.72-6.68,2.6-.62.24-1.25.4-2.08.31Z"/>
    <path class="color" d="M31.6,157.57c.17-.22.26-.37.38-.49,2.5-2.45,4.82-5.06,7.19-7.62,1.54-1.67,3.1-3.32,4.7-4.93,1.87-1.89,3.87-3.65,6.06-5.17,1-.7,2.05-1.34,3.09-1.97.88-.53,1.84-.83,2.85-1.03,2.69-.54,6.45.68,7.62,4.97.67,2.45.11,4.6-1.66,6.44-.88.91-1.89,1.65-2.97,2.29-1.45.85-2.97,1.53-4.54,2.11-3.05,1.15-6.2,1.99-9.38,2.68-3.5.75-7.02,1.44-10.52,2.16-.7.14-1.4.31-2.1.46-.2.04-.4.06-.72.1Z"/>
    <path class="color" d="M161.37,206.5c-.24.22-.45.42-.69.64-.12-.09-.22-.15-.29-.23-1.24-1.33-2.47-2.69-3.73-3.99-1.81-1.87-3.67-3.69-5.48-5.55-2.25-2.32-4.42-4.7-6.38-7.28-1.03-1.36-1.99-2.76-2.79-4.27-.62-1.17-1.13-2.37-1.4-3.67-.17-.83-.2-1.66-.08-2.5.13-.94.52-1.79,1.15-2.49.4-.44.87-.82,1.33-1.2.68-.56,1.42-.72,2.33-.54,2.05.4,4.13.67,6.2.97.48.07.83.25,1.14.62.79.95,1.44,1.98,2.01,3.07,1.06,2.05,1.83,4.22,2.48,6.43.9,3.04,1.57,6.13,2.16,9.25.6,3.17,1.19,6.34,1.79,9.51.08.41.18.81.27,1.24Z"/>
    <path class="color" d="M1.43,112.09c.23-.1.36-.16.5-.21,2.95-.89,5.89-1.77,8.84-2.66,3.46-1.04,6.94-2.01,10.5-2.7,2.65-.51,5.31-.89,8.01-.8,1.2.04,2.38.18,3.53.54.45.14.9.32,1.33.53,1.7.85,2.69,2.25,2.99,4.11.22,1.37.14,2.74-.3,4.08-.57,1.75-1.69,3-3.37,3.74-1.11.49-2.28.72-3.48.79-2.07.12-4.12-.07-6.16-.44-3.95-.72-7.77-1.91-11.56-3.22-2.91-1-5.8-2.05-8.7-3.07-.67-.24-1.36-.44-2.13-.7Z"/>
    <path class="color" d="M31.89,68.42c.15.02.33.02.49.07,7.66,2.1,15.36,4.07,22.97,6.35,2.03.61,3.86,1.6,5.52,2.91.73.58,1.38,1.24,1.9,2.01,1.15,1.71,1.39,3.52.64,5.46-.43,1.13-1.09,2.13-1.92,3-1.57,1.66-3.5,2.21-5.72,1.8-1.07-.19-2.07-.59-3.03-1.07-1.15-.58-2.23-1.28-3.27-2.04-1.93-1.42-3.7-3.03-5.4-4.71-2.22-2.18-4.3-4.49-6.36-6.81-1.43-1.61-2.87-3.21-4.31-4.8-.5-.55-1.05-1.07-1.57-1.6-.19-.19-.14-.37.06-.57Z"/>
    <path class="color" d="M185.47,68.8c-.12.38-.39.59-.59.83-2.23,2.58-4.55,5.07-6.93,7.51-3.37,3.44-6.87,6.74-10.42,9.99-1.77,1.62-3.86,2.59-6.24,2.9-1.08.14-2.15.04-3.19-.31-.93-.31-1.75-.79-2.39-1.53-1.53-1.75-2.24-3.78-1.96-6.12.11-.94.5-1.78,1.03-2.55.51-.75,1.14-1.38,1.84-1.95,1.1-.89,2.32-1.58,3.59-2.19,2.22-1.06,4.54-1.82,6.9-2.49,2.99-.85,6.03-1.49,9.07-2.12,2.98-.62,5.99-1.14,8.92-1.98.1-.03.22,0,.37,0Z"/>
    <path class="color" d="M215.72,114.23c-.27.3-.61.33-.92.43-3.28,1.1-6.61,2.05-9.97,2.89-4.89,1.22-9.83,2.24-14.8,3.13-1.98.35-3.93.16-5.8-.62-.92-.38-1.75-.91-2.45-1.62-1.07-1.1-1.63-2.41-1.67-3.94-.02-.96.1-1.91.37-2.83.58-2.04,1.87-3.43,3.85-4.18,1.16-.44,2.36-.63,3.59-.67,2.16-.09,4.29.2,6.4.62,3.84.76,7.57,1.95,11.26,3.25,2.48.87,4.95,1.76,7.42,2.63.7.25,1.42.46,2.13.7.19.06.37.14.58.22Z"/>
    <path class="color" d="M163.3,20.83c0,.29.03.4,0,.51-1.24,4.21-2.03,8.54-3.14,12.78-.84,3.24-1.76,6.45-3.01,9.56-.57,1.41-1.19,2.81-2,4.1-.47.76-1,1.49-1.54,2.2-.49.64-1.09,1.18-1.76,1.65-1.58,1.1-3.3,1.32-5.12.73-1.03-.33-1.96-.87-2.82-1.53-2.13-1.62-2.88-3.73-2.24-6.33.24-.99.64-1.92,1.12-2.82.77-1.46,1.73-2.79,2.77-4.07,1.75-2.16,3.68-4.16,5.73-6.04,2.2-2.02,4.45-3.98,6.68-5.98,1.65-1.48,3.28-2.96,4.92-4.44.08-.08.18-.13.43-.31Z"/>
    <path class="color" d="M56.78,23.64c.19.15.31.23.41.32.84.72,1.65,1.48,2.51,2.16,1.17.92,2.39,1.79,3.6,2.67,1.27.92,2.64,1.64,4.18,2,.46.11.81.35,1.11.7,1.02,1.21,2.07,2.4,3.09,3.61,1.55,1.84,2.76,3.9,3.94,5.98.67,1.18,1.09,2.45,1.27,3.8.27,2.05-.34,3.78-1.94,5.12-1.22,1.01-2.63,1.66-4.17,1.99-1.27.28-2.49.06-3.63-.6-.76-.44-1.4-1.01-1.98-1.66-.76-.85-1.38-1.8-1.92-2.8-1.08-1.97-1.87-4.07-2.56-6.2-1.04-3.22-1.82-6.5-2.5-9.8-.47-2.28-.91-4.57-1.36-6.85-.02-.11-.02-.22-.04-.43Z"/>
    <path class="color" d="M110.84,59.76c-.12-.15-.24-.27-.34-.42-1.82-2.81-3.85-5.47-5.82-8.18-.74-1.01-1.46-2.04-2.22-3.04-.32-.42-.41-.8-.26-1.32.62-2.18,1.17-4.38,1.8-6.56,1.45-5.05,2.93-10.09,4.4-15.14.06-.22.15-.43.25-.73.1.18.17.28.21.38,1.05,3.24,2.1,6.47,3.15,9.71,1.04,3.21,2,6.44,2.71,9.75.48,2.22.83,4.46.91,6.74.05,1.47-.05,2.93-.44,4.35-.21.75-.5,1.47-.94,2.12-.82,1.22-1.95,1.99-3.41,2.33Z"/>
    <path class="color" d="M173.24,62.86c-.13-.43-.22-.69-.29-.97-.45-1.82-.48-3.67-.32-5.52.16-1.97.62-3.89,1.41-5.72.6-1.38,1.38-2.64,2.48-3.69.94-.91,2.02-1.57,3.24-2.03,1.55-.58,3.16-.88,4.8-1.06,1.81-.21,3.63-.37,5.44-.57,1.25-.14,2.49-.34,3.68-.73,1-.32,1.95-.76,2.71-1.52.29-.29.55-.62.91-1.03-.03.24-.03.37-.05.49-1.02,4.68-3.4,8.57-6.89,11.8-.98.91-2.06,1.72-3.1,2.57-.35.29-.74.5-1.18.62-1.5.41-3,.81-4.49,1.24-1.15.33-2.3.66-3.41,1.08-.69.26-1.35.63-1.98,1.03-1.22.78-2.08,1.87-2.6,3.22-.08.21-.18.42-.34.78Z"/>
    <path class="color" d="M120.08,32.65c-.07-.13-.15-.25-.22-.39.18-.23.34-.44.51-.65,1.54-1.93,2.11-4.1,1.71-6.54-.2-1.18-.52-2.33-.87-3.47-.41-1.34-.85-2.68-1.07-4.07-.21-1.34-.25-2.68.08-4,.52-2.15,1.13-4.27,1.99-6.31.69-1.63,1.52-3.18,2.63-4.56.67-.84,1.43-1.61,2.29-2.26.12-.09.24-.17.45-.31-.03.21-.02.33-.06.42-.5,1.18-.46,2.39-.23,3.61.21,1.12.61,2.18,1.08,3.22.53,1.17,1.1,2.32,1.65,3.48.87,1.84,1.62,3.72,2.09,5.71.78,3.29.13,6.27-1.95,8.94-.83,1.07-1.8,1.99-2.85,2.83-2.14,1.7-4.5,3.04-6.92,4.27-.07.04-.16.05-.28.08Z"/>
    <path class="color" d="M44.28,163.28c.09.29.16.45.19.62.22,1.72.42,3.44.38,5.18-.04,1.56-.23,3.09-.67,4.6-.72,2.44-2.06,4.49-3.89,6.24-.81.78-1.8,1.28-2.84,1.66-1.3.47-2.65.74-4.01.89-1.87.2-3.75.36-5.62.55-1.34.13-2.67.32-3.96.72-.98.3-1.91.72-2.66,1.43-.34.32-.63.7-.99,1.11-.11-.26-.05-.49,0-.7.34-1.65.89-3.22,1.66-4.72.65-1.25,1.42-2.42,2.27-3.54,1.09-1.43,2.31-2.74,3.58-4.01,1.05-1.05,2.32-1.77,3.7-2.3,1.2-.46,2.45-.75,3.7-1.06.9-.22,1.79-.46,2.68-.71.46-.13.9-.31,1.35-.49,2.15-.88,3.69-2.39,4.67-4.48.14-.29.28-.58.47-.98Z"/>
    <path class="color" d="M32.91,143.91c-.3-.02-.57-.02-.83-.05-2.68-.31-5.03.45-7.01,2.27-.77.71-1.47,1.49-2.2,2.23-.82.83-1.6,1.7-2.46,2.49-1.29,1.19-2.8,2.05-4.52,2.46-2.5.6-5.01,1.15-7.59,1.29-2.29.12-4.54-.13-6.68-1.02-.17-.07-.42-.08-.48-.38.11-.03.22-.07.32-.07,1.18-.07,2.21-.53,3.11-1.26.6-.49,1.18-1.02,1.68-1.61.79-.94,1.51-1.93,2.24-2.92.8-1.08,1.55-2.2,2.35-3.28.89-1.2,1.88-2.32,3.03-3.29,1.4-1.18,2.97-2.01,4.78-2.32,1.55-.26,3.1-.17,4.63.2,1.67.39,3.26.99,4.76,1.82,1.49.82,2.95,1.7,4.42,2.55.31.18.51.4.45.89Z"/>
    <path class="color" d="M1.37,72.81c.2-.08.37-.16.56-.21,2.83-.79,5.7-.97,8.61-.65,3,.32,5.84,1.2,8.57,2.46.89.41,1.62,1.01,2.21,1.78.22.29.43.58.64.86.89,1.17,1.89,2.24,3.06,3.13,2.09,1.58,4.43,2.44,7.07,2.46.24,0,.48.01.72.03.02,0,.04.04.08.09-.03.06-.05.15-.11.19-2.26,1.63-4.64,3.06-7.25,4.07-1.34.52-2.72.87-4.17,1-2.26.2-4.33-.3-6.24-1.51-1.09-.7-2.06-1.54-2.9-2.52-.79-.93-1.55-1.89-2.29-2.87-.82-1.1-1.58-2.25-2.4-3.35-.57-.77-1.17-1.52-1.81-2.22-1.14-1.26-2.47-2.25-4.21-2.54-.04,0-.07-.08-.15-.18Z"/>
    <path class="color" d="M216.13,153.3c-.33.16-.51.25-.69.32-2.18.85-4.44,1.12-6.77.97-2.85-.19-5.58-.96-8.3-1.75-1.91-.55-3.46-1.59-4.71-3.1-.48-.58-.95-1.15-1.43-1.72-.21-.25-.43-.5-.64-.75-1.81-2.05-4.09-3.14-6.8-3.38-.54-.05-1.07-.08-1.61-.13-.08,0-.15-.05-.3-.1.12-.15.19-.27.29-.36,2.99-2.75,6.46-4.51,10.54-4.86,3.68-.32,6.82.9,9.32,3.64.48.53.9,1.11,1.33,1.69,1.57,2.11,3.12,4.23,4.69,6.33.39.52.84,1.02,1.29,1.49.88.91,1.92,1.5,3.21,1.61.14.01.27.05.58.11Z"/>
    <path class="color" d="M97.55,194.14c-.22.28-.42.54-.61.8-.9,1.22-1.54,2.55-1.76,4.07-.15,1.05-.05,2.09.2,3.11.26,1.04.6,2.06.88,3.1.3,1.09.63,2.18.87,3.29.45,2.06.33,4.11-.34,6.1-.53,1.58-1.12,3.15-1.73,4.7-.52,1.31-1.17,2.55-1.97,3.71-.73,1.07-1.58,2.02-2.61,2.81-.19.14-.39.27-.68.47.03-.21.01-.32.05-.41.61-1.35.58-2.73.15-4.11-.2-.65-.45-1.3-.72-1.93-1.07-2.56-2.15-5.12-3.22-7.68-.52-1.24-.89-2.53-1.05-3.87-.27-2.26.22-4.33,1.4-6.25.66-1.08,1.49-2.01,2.42-2.87.99-.92,2.05-1.75,3.19-2.45,1.55-.95,3.14-1.85,4.71-2.77.1-.06.21-.12.32-.16.26-.1.39.04.49.35Z"/>
    <path class="color" d="M89.92,0c.35.3.58.49.79.69,1.38,1.34,2.54,2.86,3.49,4.53,1.89,3.33,2.88,6.93,3.24,10.73.1,1.03-.05,2.03-.41,2.99-.17.45-.35.89-.53,1.33-.67,1.58-1.07,3.23-1.14,4.95-.09,2.17.4,4.21,1.4,6.13.12.24.24.48.36.72.01.02,0,.05-.02.15-.14-.04-.28-.05-.41-.11-1.98-.85-3.91-1.8-5.69-3.02-1.04-.71-2.02-1.5-2.88-2.41-1.38-1.47-2.37-3.14-2.77-5.14-.28-1.4-.25-2.79-.01-4.19.28-1.66.8-3.25,1.44-4.8.65-1.57,1.34-3.13,2-4.7.58-1.38,1.11-2.77,1.38-4.25.18-1.02.19-2.02-.09-3.02-.04-.14-.07-.27-.14-.58Z"/>
    <path class="color" d="M216.14,73.06c-1.51.14-2.69.8-3.75,1.73-.79.7-1.47,1.49-2.08,2.34-.7.97-1.39,1.94-2.05,2.94-.98,1.47-2.11,2.83-3.27,4.15-.57.64-1.22,1.23-1.9,1.76-2.25,1.73-4.83,2.27-7.61,1.9-1.52-.2-2.97-.65-4.39-1.23-2.3-.95-4.44-2.19-6.53-3.53-.1-.06-.17-.15-.29-.25.08-.14.15-.26.21-.37.72.04,1.4.1,2.08.1,1.89,0,3.6-.56,5.07-1.74.72-.58,1.38-1.24,2.02-1.89.65-.66,1.25-1.37,1.87-2.05.71-.77,1.47-1.49,2.31-2.11,1.22-.9,2.57-1.52,4.05-1.84,1.4-.3,2.8-.59,4.21-.84,1.95-.35,3.91-.47,5.89-.27,1.32.13,2.59.45,3.79,1.01.12.06.24.14.36.21Z"/>
    <path class="color" d="M44.34,62.61c-.11-.2-.24-.4-.34-.6-1.15-2.23-2.91-3.75-5.27-4.59-1.27-.45-2.59-.72-3.89-1.05-1.04-.26-2.08-.54-3.1-.87-1.61-.53-3.01-1.43-4.21-2.65-1.11-1.13-2.21-2.27-3.2-3.51-1.65-2.08-2.97-4.34-3.72-6.9-.16-.54-.29-1.1-.42-1.65-.05-.22-.04-.45-.07-.86.19.23.27.31.33.4.69,1,1.64,1.63,2.75,2.08,1.26.5,2.58.74,3.92.89,1.81.2,3.63.35,5.44.55,1.49.16,2.96.4,4.38.89.73.25,1.46.54,2.14.9,2.01,1.05,3.42,2.67,4.32,4.74.57,1.3.91,2.66,1.1,4.05.36,2.71.28,5.42-.16,8.17Z"/>
    <path class="color" d="M127.87,226.56c-.11.06-.23.12-.39.21-.26-.26-.52-.51-.76-.77-1.53-1.67-2.68-3.58-3.62-5.63-1.04-2.26-1.77-4.62-2.48-7-.14-.46-.23-.93-.4-1.38-.43-1.17-.38-2.35-.05-3.52.22-.77.46-1.54.73-2.3.43-1.21.8-2.43.99-3.71.4-2.63-.02-5.11-1.27-7.46-.13-.24-.25-.47-.37-.7.12-.21.27-.12.39-.06,2.18.91,4.29,1.97,6.21,3.36,1.07.77,2.06,1.64,2.91,2.65,1.26,1.49,2.1,3.19,2.37,5.13.2,1.43.1,2.86-.2,4.27-.33,1.55-.84,3.05-1.46,4.51-.58,1.38-1.18,2.74-1.76,4.12-.57,1.35-1.11,2.7-1.39,4.15-.26,1.36-.22,2.67.51,3.9.03.05.02.11.03.23Z"/>
    <path class="color" d="M108.84,201.73c-.27.04-.37-.08-.42-.27-.11-.4-.19-.82-.32-1.21-.71-2.22-1.41-4.44-2.14-6.65-1.1-3.35-2.2-6.7-3.03-10.13-.29-1.19-.52-2.39-.77-3.59-.07-.32-.08-.64-.12-.98.23-.17.4-.33.6-.45,1.57-.98,3.14-1.96,4.72-2.94,1.5-.93,3.02-1.82,4.5-2.78.9-.58,1.74-1.27,2.61-1.9.16-.12.33-.23.54-.37.33.54.42,1.1.52,1.65.31,1.66.28,3.33.12,5-.36,3.64-1.26,7.18-2.34,10.66-1.03,3.31-2.15,6.59-3.21,9.89-.37,1.16-.7,2.35-1.05,3.52-.06.2-.14.39-.2.56Z"/>
    <path class="color" d="M181.65,153.4c-.3-.09-.46-.14-.62-.2-4.67-1.76-9.47-3.1-14.32-4.27-3.94-.96-7.88-1.94-11.82-2.91-.23-.06-.46-.13-.7-.2-.7-1.15-.8-2.39-.52-3.64.43-1.89,1.44-3.47,2.94-4.7,1.4-1.16,3.04-1.47,4.8-1.18.98.16,1.91.49,2.8.91,1.25.58,2.41,1.32,3.52,2.13,1.57,1.14,3.04,2.42,4.45,3.75,3.28,3.11,6.25,6.5,9.22,9.9.07.08.11.18.25.41Z"/>
    <path class="color" d="M93.41,185.32c-.13.26-.25.53-.39.78-1.5,2.64-3.47,4.85-5.98,6.57-2.44,1.67-4.29,3.87-5.69,6.46-1.06,1.95-1.79,4.04-2.4,6.16-.82,2.84-1.48,5.72-2.14,8.6-.36,1.54-.72,3.08-1.08,4.62-.05.2-.1.42-.2.59-.06.09-.24.1-.41.16-.1-.27-.19-.49-.25-.71-.78-2.95-1.33-5.94-1.65-8.97-.28-2.65-.38-5.3-.31-7.96.03-1.19.13-2.39.18-3.58.02-.4.18-.66.49-.9,1.1-.82,2.24-1.57,3.52-2.12,4.69-2.01,9.04-4.6,13.16-7.6.8-.58,1.59-1.17,2.38-1.75.21-.16.43-.31.65-.46.04.04.09.08.13.12Z"/>
    <path class="color" d="M158.55,177.47c.65.08,1.24.15,1.82.23,2.57.37,5.15.69,7.75.88.15.01.31,0,.44.05.16.06.3.17.43.29.08.08.12.2.18.31.88,1.57,1.93,3.02,3.14,4.35.32.35.47.71.48,1.19.05,2.06.24,4.12.58,6.15.02.14.03.29.05.52-.29-.11-.51-.17-.71-.27-1.37-.66-2.74-1.34-4.11-2.01-.78-.38-1.56-.76-2.35-1.12-1.45-.66-2.62-1.65-3.59-2.9-.68-.88-1.24-1.83-1.75-2.81-.78-1.51-1.56-3.03-2.33-4.55-.03-.05-.02-.11-.06-.31Z"/>
    <path class="color" d="M80.21,48.52c.16.2.25.32.34.44.87,1.25,1.74,2.5,2.62,3.75,1.3,1.83,2.46,3.75,3.35,5.81.21.49.45.97.72,1.53-.5.02-.86-.23-1.25-.32-.44-.1-.86-.24-1.3-.33-.41-.09-.82-.16-1.24-.21-.44-.05-.89-.09-1.34-.1-.42-.02-.84,0-1.22,0-2.08-2.12-2.81-5.06-1.82-7.7.34-.92.72-1.82,1.13-2.85Z"/>
    <path class="color" d="M75.46,7.2c.31-.01.36.2.41.4.16.7.31,1.4.47,2.1.62,2.73,1.24,5.47,2.03,8.16.03.11.03.23.06.46-.19-.14-.31-.2-.39-.3-1.19-1.37-2.38-2.76-3.58-4.13-.27-.31-.41-.63-.32-1.05.4-1.77.8-3.55,1.2-5.32.03-.11.08-.22.12-.32Z"/>
  </g>
  <g>
    <path class="color" d="M334.08,167.24l-22.14-55.16-25.81,55.41-37.45-96.78h21.51l18.34,53.89,14.17-35.55-7.34-18.34h18.22l20.87,51.74,15.81-51.74h19.74l-35.93,96.53Z"/>
    <path class="color" d="M419.48,144.98h-30.87l-7.59,18.22h-18.09l42-96.78h1.01l42,96.78h-21.25l-7.21-18.22ZM413.4,129.54l-8.98-22.64-9.36,22.64h18.34Z"/>
    <path class="color" d="M511.7,163.2l-19.61-29.6h-12.27v29.6h-18.34v-93.11h28.21c11.55,0,20.51,2.81,26.88,8.41,6.37,5.61,9.55,13.26,9.55,22.96,0,5.74-1.2,11.11-3.61,16.13-2.4,5.02-6.09,8.96-11.07,11.83l21.63,33.78h-21.38ZM479.82,115.88h13.03c4.98,0,8.6-1.45,10.88-4.36,2.28-2.91,3.42-6.05,3.42-9.42s-.97-6.6-2.91-9.68c-1.94-3.08-5.69-4.62-11.26-4.62h-13.16v28.08Z"/>
    <path class="color" d="M598.48,163.2l-19.61-29.6h-12.27v29.6h-18.34v-93.11h28.21c11.55,0,20.51,2.81,26.88,8.41,6.37,5.61,9.55,13.26,9.55,22.96,0,5.74-1.2,11.11-3.61,16.13-2.4,5.02-6.09,8.96-11.07,11.83l21.63,33.78h-21.38ZM566.6,115.88h13.03c4.98,0,8.6-1.45,10.88-4.36,2.28-2.91,3.42-6.05,3.42-9.42s-.97-6.6-2.91-9.68c-1.94-3.08-5.69-4.62-11.26-4.62h-13.16v28.08Z"/>
    <path class="color" d="M653.39,70.09v93.11h-18.34v-93.11h18.34Z"/>
    <path class="color" d="M678.12,93.11c4.26-7.34,10.04-13.18,17.33-17.52,7.29-4.34,15.2-6.51,23.72-6.51s16.42,2.17,23.72,6.51c7.29,4.34,13.11,10.18,17.46,17.52,4.34,7.34,6.52,15.22,6.52,23.66s-2.17,16.53-6.52,23.78c-4.34,7.25-10.16,13.01-17.46,17.27-7.3,4.26-15.2,6.39-23.72,6.39s-16.53-2.13-23.78-6.39c-7.25-4.26-13.01-10.01-17.27-17.27-4.26-7.25-6.39-15.18-6.39-23.78s2.13-16.32,6.39-23.66ZM694.56,131.7c2.57,4.55,6.07,8.16,10.5,10.82,4.43,2.66,9.34,3.99,14.74,3.99s9.99-1.33,14.3-3.99c4.3-2.66,7.67-6.24,10.12-10.75,2.45-4.51,3.67-9.51,3.67-14.99s-1.26-10.63-3.79-15.18c-2.53-4.55-5.97-8.16-10.31-10.82-4.34-2.66-9.17-3.99-14.49-3.99s-10.14,1.33-14.49,3.99c-4.34,2.66-7.78,6.26-10.31,10.82-2.53,4.55-3.79,9.61-3.79,15.18s1.29,10.37,3.86,14.93Z"/>
    <path class="color" d="M835.43,163.2l-19.61-29.6h-12.27v29.6h-18.34v-93.11h28.21c11.55,0,20.51,2.81,26.88,8.41,6.37,5.61,9.55,13.26,9.55,22.96,0,5.74-1.2,11.11-3.61,16.13-2.4,5.02-6.09,8.96-11.07,11.83l21.63,33.78h-21.38ZM803.55,115.88h13.03c4.98,0,8.6-1.45,10.88-4.36,2.28-2.91,3.42-6.05,3.42-9.42s-.97-6.6-2.91-9.68c-1.94-3.08-5.69-4.62-11.26-4.62h-13.16v28.08Z"/>
  </g>
  <g>
    <path class="color" d="M752.95,173.69c-.95,0-1.68.19-2.2.56-.52.37-.78.94-.78,1.68,0,.69.38,1.3,1.14,1.82.76.52,1.77,1.02,3.03,1.49,1.02.38,1.9.8,2.63,1.29.73.48,1.33,1.15,1.82,2,.48.85.72,1.92.72,3.22,0,1.12-.29,2.16-.87,3.12-.58.96-1.43,1.71-2.56,2.28s-2.46.84-4.02.84c-1.3,0-2.59-.19-3.87-.58s-2.47-.97-3.58-1.76l1.89-3.34c.75.55,1.61,1,2.57,1.36.96.35,1.83.53,2.6.53.91,0,1.69-.19,2.36-.58s1-1.01,1-1.88c0-1.12-1.05-2.1-3.16-2.93-1.24-.49-2.28-.96-3.1-1.42-.83-.45-1.54-1.1-2.14-1.95-.6-.85-.9-1.91-.9-3.19,0-1.87.62-3.38,1.85-4.52,1.23-1.14,2.87-1.76,4.92-1.86,1.62,0,2.96.18,4.05.55,1.08.37,2.14.88,3.16,1.55l-1.62,3.28c-1.89-1.04-3.54-1.57-4.93-1.57Z"/>
    <path class="color" d="M776.67,169.99v4.14h-5.29v17.61h-4.28v-17.61h-5.08v-4.14h14.66Z"/>
    <path class="color" d="M785.27,185.68c.41.63.96,1.14,1.66,1.54.69.39,1.43.59,2.22.59.85,0,1.62-.2,2.33-.59.71-.39,1.27-.91,1.67-1.54.4-.63.61-1.29.61-1.98v-13.71h4.23v13.8c0,1.56-.39,2.96-1.18,4.21-.79,1.25-1.86,2.23-3.21,2.93-1.35.7-2.83,1.05-4.45,1.05s-3.09-.35-4.43-1.05-2.4-1.67-3.18-2.93c-.78-1.25-1.17-2.65-1.17-4.21v-13.8h4.28v13.71c0,.69.21,1.35.62,1.98Z"/>
    <path class="color" d="M803.15,169.99h6.5c2.78,0,5.06.54,6.86,1.61,1.79,1.07,3.1,2.46,3.92,4.17.82,1.7,1.23,3.53,1.23,5.48,0,2.09-.49,3.93-1.48,5.53-.99,1.6-2.31,2.82-3.97,3.68-1.67.86-3.49,1.29-5.48,1.29h-7.56v-21.75ZM809.98,187.6c2.23,0,3.99-.57,5.29-1.71s1.95-2.79,1.95-4.93c0-1.73-.36-3.11-1.08-4.14-.72-1.02-1.56-1.73-2.51-2.13-.96-.39-1.86-.59-2.7-.59h-3.49v13.5h2.54Z"/>
    <path class="color" d="M830.22,169.99v21.75h-4.29v-21.75h4.29Z"/>
    <path class="color" d="M835.99,175.37c.99-1.71,2.34-3.08,4.05-4.09s3.55-1.52,5.54-1.52,3.84.51,5.54,1.52c1.7,1.01,3.06,2.38,4.08,4.09,1.01,1.71,1.52,3.56,1.52,5.53s-.51,3.86-1.52,5.55-2.37,3.04-4.08,4.03c-1.7,1-3.55,1.49-5.54,1.49s-3.86-.5-5.55-1.49c-1.69-.99-3.04-2.34-4.03-4.03-1-1.69-1.49-3.55-1.49-5.55s.5-3.81,1.49-5.53ZM839.83,184.38c.6,1.06,1.42,1.91,2.45,2.53s2.18.93,3.44.93,2.33-.31,3.34-.93c1-.62,1.79-1.46,2.36-2.51s.86-2.22.86-3.5-.3-2.48-.89-3.55c-.59-1.06-1.39-1.91-2.41-2.53-1.01-.62-2.14-.93-3.38-.93s-2.37.31-3.38.93c-1.01.62-1.82,1.46-2.41,2.53-.59,1.06-.89,2.25-.89,3.55s.3,2.42.9,3.49Z"/>
  </g>
</svg>